<?xml version="1.0" standalone="no"?>
<!DOCTYPE svg PUBLIC "-//W3C//DTD SVG 1.1//EN" "http://www.w3.org/Graphics/SVG/1.1/DTD/svg11.dtd" >
<svg xmlns="http://www.w3.org/2000/svg">
<metadata>
Created by FontForge 20120731 at Tue Nov 22 20:05:43 2016
 By admin
</metadata>
<defs>
<font id="iconfont" horiz-adv-x="1024" >
  <font-face 
    font-family="iconfont"
    font-weight="500"
    font-stretch="normal"
    units-per-em="1024"
    panose-1="2 0 6 3 0 0 0 0 0 0"
    ascent="896"
    descent="-128"
    x-height="792"
    bbox="-8 -128 1131 896"
    underline-thickness="50"
    underline-position="-100"
    unicode-range="U+0078-E7BA"
  />
<missing-glyph horiz-adv-x="374" 
d="M34 0v682h272v-682h-272zM68 34h204v614h-204v-614z" />
    <glyph glyph-name=".notdef" horiz-adv-x="374" 
d="M34 0v682h272v-682h-272zM68 34h204v614h-204v-614z" />
    <glyph glyph-name=".null" horiz-adv-x="0" 
 />
    <glyph glyph-name="nonmarkingreturn" horiz-adv-x="341" 
 />
    <glyph glyph-name="x" unicode="x" horiz-adv-x="1001" 
d="M281 543q-27 -1 -53 -1h-83q-18 0 -36.5 -6t-32.5 -18.5t-23 -32t-9 -45.5v-76h912v41q0 16 -0.5 30t-0.5 18q0 13 -5 29t-17 29.5t-31.5 22.5t-49.5 9h-133v-97h-438v97zM955 310v-52q0 -23 0.5 -52t0.5 -58t-10.5 -47.5t-26 -30t-33 -16t-31.5 -4.5q-14 -1 -29.5 -0.5
t-29.5 0.5h-32l-45 128h-439l-44 -128h-29h-34q-20 0 -45 1q-25 0 -41 9.5t-25.5 23t-13.5 29.5t-4 30v167h911zM163 247q-12 0 -21 -8.5t-9 -21.5t9 -21.5t21 -8.5q13 0 22 8.5t9 21.5t-9 21.5t-22 8.5zM316 123q-8 -26 -14 -48q-5 -19 -10.5 -37t-7.5 -25t-3 -15t1 -14.5
t9.5 -10.5t21.5 -4h37h67h81h80h64h36q23 0 34 12t2 38q-5 13 -9.5 30.5t-9.5 34.5q-5 19 -11 39h-368zM336 498v228q0 11 2.5 23t10 21.5t20.5 15.5t34 6h188q31 0 51.5 -14.5t20.5 -52.5v-227h-327z" />
    <glyph glyph-name="uniE600" unicode="&#xe600;" 
d="M868 568l-155 116v-322q-52 -17 -93 -55v392l-247 -135v-513l171 93q-1 -13 -1 -17q0 -41 14 -81l-208 -114q-11 -6 -23 -6q-15 0 -28 10l-245 183q-21 14 -21 39v620q0 19 13.5 32.5t32.5 13.5q16 0 29 -10l223 -167l316 172q10 5 21 5q16 0 29 -10l244 -183l3 -3
q18 -14 18 -36v-285q-40 38 -93 55v206zM280 568l-155 116v-502l155 -116v502zM790.5 329q83.5 0 142.5 -59t59 -142.5t-59 -142.5t-142.5 -59t-142.5 59t-59 142.5t59 142.5t142.5 59zM698 81h186q19 0 32.5 13.5t13.5 32.5t-13.5 33t-32.5 14h-186q-19 0 -33 -14t-14 -33
t14 -32.5t33 -13.5z" />
    <glyph glyph-name="uniE601" unicode="&#xe601;" 
d="M868 568l-155 116v-322q-52 -17 -93 -55v392l-247 -135v-513l171 93q-1 -13 -1 -17q0 -41 14 -81l-208 -114q-11 -6 -23 -6q-15 0 -28 10l-245 183q-21 14 -21 39v620q0 19 13.5 32.5t32.5 13.5q16 0 29 -10l223 -167l316 172q10 5 21 5q16 0 29 -10l244 -183l3 -3
q18 -14 18 -36v-285q-40 38 -93 55v206zM280 568l-155 116v-502l155 -116v502zM790.5 329q83.5 0 142.5 -59t59 -142.5t-59 -142.5t-142.5 -59t-142.5 59t-59 142.5t59 142.5t142.5 59zM665 79l62 -62q14 -14 33 -14t33 14l123 124q14 13 14 32.5t-13.5 33t-33 13.5
t-32.5 -14l-91 -91l-29 29q-14 14 -33 14t-33 -13.5t-14 -32.5t14 -33z" />
    <glyph glyph-name="uniE602" unicode="&#xe602;" 
d="M868 568l-155 116v-322q-52 -17 -93 -55v392l-247 -135v-513l171 93q-1 -13 -1 -17q0 -41 14 -81l-208 -114q-11 -6 -23 -6q-15 0 -28 10l-245 183q-21 14 -21 39v620q0 19 13.5 32.5t32.5 13.5q16 0 29 -10l223 -167l316 172q10 5 21 5q16 0 29 -10l244 -183l3 -3
q18 -14 18 -36v-285q-40 38 -93 55v206zM280 568l-155 116v-502l155 -116v502zM790.5 329q83.5 0 142.5 -59t59 -142.5t-59 -142.5t-142.5 -59t-142.5 59t-59 142.5t59 142.5t142.5 59zM696 98q-14 -14 -14 -33t14 -32.5t33 -13.5t33 13l29 30l29 -30q13 -13 32.5 -13
t33 13.5t13.5 33t-14 32.5l-29 29l29 29q14 14 14 33t-13.5 33t-33 14t-32.5 -14l-29 -29l-29 29q-14 14 -33.5 14t-33 -14t-13.5 -33t14 -33l29 -29z" />
    <glyph glyph-name="uniE603" unicode="&#xe603;" 
d="M963 146l-3 5l-10 12q-11 13 -40 37q-42 35 -77 57l-46 30l-21 11q-16 7 -35 1q-15 -5 -22 -18l-17 -25q-3 -6 -7 -11q-3 -6 -11.5 -23.5t-14.5 -27.5q-12 -22 -35 -32t-52 3q-98 56 -166 119q-97 93 -130 167q-8 12 -1.5 35.5t26.5 33.5q12 6 32.5 14.5t30.5 13.5
q7 5 14.5 9t17.5 11q1 0 4 3l4 3q1 2 3 3q18 18 9 41l-3 8q-14 32 -35 67q-17 29 -40 60q-15 20 -31 35t-25 20l-9 4q-8 5 -13 7q-22 9 -47 -1l-10 -4q-5 -2 -8.5 -4t-8.5 -5t-7.5 -4t-7.5 -5t-6.5 -5t-7 -5.5t-6.5 -5.5t-7.5 -6t-7.5 -6q-43 -35 -67.5 -79.5t-18.5 -84.5
q9 -69 85 -191.5t176.5 -218.5t230 -167.5t202.5 -80.5q76 -10 164 70q37 35 53 70q7 14 8.5 29.5t-6.5 30.5z" />
    <glyph glyph-name="uniE604" unicode="&#xe604;" 
d="M760 246v116l-193 -193l193 -194v116h232v155h-232zM934 62h-32v-13h-115v-32h147v45zM32 17h641l-61 60v-28h-258v161h208l33 32h-241v194h258v-176l32 32v144h258v-161h32v515h-902v-773zM644 629h258v-161h-258v161zM354 629h258v-161h-258v161zM322 49h-258v161h258
v-161zM64 629h258v-161h-258v161zM322 436v-194h-258v194h258z" />
    <glyph glyph-name="uniE605" unicode="&#xe605;" horiz-adv-x="1025" 
d="M165 591h513v-51h-513v51zM165 479h513v-51h-513v51zM607 60l-97 82l-20 -122zM627 84l-97 82l246 291l97 -82zM951 517l-49 41q-10 9 -23 8t-22 -11l-61 -73l97 -82l62 73q8 10 7 23t-11 21zM653 370h-488v-51h445zM165 257v-52h350l43 52h-393zM165 89h253l43 51h-296
v-51zM730 -6h-617v719h29v-27q0 -11 7.5 -18.5t18.5 -7.5t18.5 7.5t7.5 18.5v27h50v-27q0 -11 7.5 -18.5t18 -7.5t18 7.5t7.5 18.5v27h50v-27q0 -11 7.5 -18.5t18.5 -7.5t18.5 7.5t7.5 18.5v27h51v-27q0 -11 7.5 -18.5t18 -7.5t18 7.5t7.5 18.5v27h50v-27q0 -11 7.5 -18.5
t18.5 -7.5t18.5 7.5t7.5 18.5v27h50v-27q0 -11 7.5 -18.5t18 -7.5t18 7.5t7.5 18.5v27h28v-251l51 61v242h-79v23q0 11 -7.5 18.5t-18 7.5t-18 -7.5t-7.5 -18.5v-23h-50v23q0 11 -7.5 18.5t-18.5 7.5t-18.5 -7.5t-7.5 -18.5v-23h-50v23q0 11 -7.5 18.5t-18 7.5t-18 -7.5
t-7.5 -18.5v-23h-51v23q0 11 -7.5 18.5t-18.5 7.5t-18.5 -7.5t-7.5 -18.5v-23h-50v23q0 11 -7.5 18.5t-18 7.5t-18 -7.5t-7.5 -18.5v-23h-50v23q0 11 -7.5 18.5t-18.5 7.5t-18.5 -7.5t-7.5 -18.5v-23h-80v-822h719v261l-51 -61v-149z" />
    <glyph glyph-name="uniE606" unicode="&#xe606;" 
d="M165 610h513v-51h-513v51zM569 405l55 -55v-2v-1l-14 -52l-1 -1q-1 0 -1 -1l-52 -13h-1h-1l-1 1l-54 56q-7 -25 -1 -51t25 -46q19 -19 45 -26t51 0l149 -153q-7 -25 -1 -51.5t25 -45.5t44.5 -26t51.5 -1l-54 56q-1 0 -1 1v1l14 52l1 1l1 1l52 13h1t2 -1l54 -55q7 24 1 50
t-25 46q-20 20 -47.5 27t-52.5 -2l-146 150q9 25 3 53t-26 48q-19 20 -44.5 27t-51.5 0zM452 275h-287v-51h313q-19 23 -26 51zM471 389h-306v-52h285q5 28 21 52zM588 451q16 0 34 -4h56v51h-513v-51h388q19 4 35 4zM629 159h-464v-52h513zM113 13v719h29v-28
q0 -10 7.5 -17.5t18.5 -7.5t18.5 7.5t7.5 17.5v28h50v-28q0 -10 7.5 -17.5t18 -7.5t18 7.5t7.5 17.5v28h50v-28q0 -10 7.5 -17.5t18.5 -7.5t18.5 7.5t7.5 17.5v28h51v-28q0 -10 7.5 -17.5t18 -7.5t18 7.5t7.5 17.5v28h50v-28q0 -10 7.5 -17.5t18.5 -7.5t18.5 7.5t7.5 17.5
v28h50v-28q0 -10 7.5 -17.5t18 -7.5t18 7.5t7.5 17.5v28h28v-451l51 -53v556h-79v23q0 11 -7.5 18.5t-18 7.5t-18 -7.5t-7.5 -18.5v-23h-50v23q0 11 -7.5 18.5t-18.5 7.5t-18.5 -7.5t-7.5 -18.5v-23h-50v23q0 11 -7.5 18.5t-18 7.5t-18 -7.5t-7.5 -18.5v-23h-51v23
q0 11 -7.5 18.5t-18.5 7.5t-18.5 -7.5t-7.5 -18.5v-23h-50v23q0 11 -7.5 18.5t-18 7.5t-18 -7.5t-7.5 -18.5v-23h-50v23q0 11 -7.5 18.5t-18.5 7.5t-18.5 -7.5t-7.5 -18.5v-23h-80v-822h684q-16 22 -20 51h-613z" />
    <glyph glyph-name="uniE607" unicode="&#xe607;" 
d="M234 613h559v-51h-559v51zM964 490l-35 36q-8 7 -18 7t-18 -7l-53 -53l71 -71l53 53q7 7 7 17.5t-7 17.5zM593 226l-23 -94l94 23zM823 455l71 -70l-212 -212l-71 70zM234 409h474l51 51h-525v-51zM609 308h-375v-51h324zM825 -2h-628v724h628v-185l30 31q8 7 18 6v148
q0 20 -14 34t-34 14h-48q0 20 -14.5 34t-34.5 14h-627q-20 0 -34 -14t-14 -34v-724q0 -20 14 -34t34 -14h48q0 -20 14 -34t34 -14h628q20 0 34 14t14 34v314l-48 -48v-266v0zM149 722v-676h-48v724h96q-20 0 -34 -14t-14 -34zM234 105h288l14 50h-302v-50z" />
    <glyph glyph-name="uniE608" unicode="&#xe608;" 
d="M679 841h-543q-23 0 -40 -16.5t-17 -40.5v-800q0 -24 17 -40.5t40 -16.5h543q24 0 40.5 16.5t16.5 40.5v800q0 24 -16.5 40.5t-40.5 16.5zM679 -16h-543v800h543v-800zM231 588h343v-86h-343v86zM231 435h343v-86h-343v86zM231 289h343v-86h-343v86zM811 641h-29
q-12 0 -20 -8.5t-8 -19.5v-658q0 -11 8 -19.5t20 -8.5h29q11 0 19.5 8.5t8.5 19.5v658q0 11 -8.5 19.5t-19.5 8.5zM916 502h-28q-12 0 -20.5 -8.5t-8.5 -20.5v-514q0 -12 8.5 -20.5t20.5 -8.5h28q12 0 20.5 8.5t8.5 20.5v514q0 12 -8.5 20.5t-20.5 8.5z" />
    <glyph glyph-name="uniE609" unicode="&#xe609;" 
d="M932 264h-60v-120l-120 120h-360q-25 0 -42.5 17.5t-17.5 42.5v420q0 25 17.5 42.5t42.5 17.5h540q25 0 42.5 -17.5t17.5 -42.5v-420q0 -25 -17.5 -42.5t-42.5 -17.5zM482 564q-12 0 -21 -9t-9 -21t9 -21t21 -9t21 9t9 21t-9 21t-21 9zM662 564q-12 0 -21 -9t-9 -21
t9 -21t21 -9t21 9t9 21t-9 21t-21 9zM842 564q-12 0 -21 -9t-9 -21t9 -21t21 -9t21 9t9 21t-9 21t-21 9zM692 204v-120q0 -25 -17.5 -42.5t-42.5 -17.5h-360l-120 -120v120h-60q-25 0 -42.5 17.5t-17.5 42.5v420q0 25 17.5 42.5t42.5 17.5h180v-300q0 -25 17.5 -42.5
t42.5 -17.5h360z" />
    <glyph glyph-name="uniE60A" unicode="&#xe60a;" 
d="M142 605h547v-54h-547v54zM142 486h547v-55h-547v55zM867 143h-170q-9 0 -14.5 -5.5t-5.5 -14t5.5 -14t14.5 -5.5h170q9 0 14.5 6t5.5 14t-5.5 13.5t-14.5 5.5zM782 334q-87 0 -148.5 -61.5t-61.5 -148.5t61.5 -148.5t148.5 -61.5t148.5 61.5t61.5 148.5t-61.5 148.5
t-148.5 61.5zM782 -47q-71 0 -121 50t-50 120.5t50 120.5t121 50t121 -50t50 -120.5t-50 -120.5t-121 -50zM142 69h376q-6 27 -6 55h-370v-55zM544 248h-402v-55h380q8 28 22 55zM671 369h-529v-55h449q33 34 80 55zM562 -32h-475v767h31v-29q0 -12 8 -20t19 -8t19 8t8 20
v29h54v-29q0 -12 8 -20t19 -8t19.5 8t8.5 20v29h53v-29q0 -12 8 -20t19.5 -8t19.5 8t8 20v29h54v-29q0 -12 8.5 -20t19.5 -8t19 8t8 20v29h54v-29q0 -12 8 -20t19.5 -8t19.5 8t8 20v29h53v-29q0 -12 8 -20t19 -8t19.5 8t8.5 20v29h29v-345q27 4 38 4q3 0 9 -1t8 -1v398h-84
v25q0 12 -8.5 20t-19.5 8t-19 -8t-8 -20v-25h-53v25q0 12 -8 20t-19.5 8t-19.5 -8t-8 -20v-25h-54v25q0 12 -8 20t-19 8t-19.5 -8t-8.5 -20v-25h-54v25q0 12 -8 20t-19.5 8t-19.5 -8t-8 -20v-25h-53v25q0 12 -8.5 20t-19.5 8t-19 -8t-8 -20v-25h-54v25q0 12 -8 20t-19 8
t-19 -8t-8 -20v-25h-86v-876h582q-32 25 -52 54z" />
    <glyph glyph-name="uniE60B" unicode="&#xe60b;" 
d="M512 -84q-15 16 -39 43.5t-86 105.5t-109.5 147.5t-86.5 152t-39 136.5q0 95 48 176t131 128t181 47t181 -47t131 -128t48 -176q0 -147 -254 -461q-59 -73 -106 -124zM512 735q-99 0 -169.5 -68.5t-70.5 -165.5t70.5 -165.5t169.5 -68.5t169.5 68.5t70.5 165.5
t-70.5 165.5t-169.5 68.5zM632 457h-75v-73q0 -18 -13 -31t-32 -13t-32 13t-13 31v73h-75q-19 0 -32 13t-13 31t13 31t32 13h75v73q0 18 13 31t32 13t32 -13t13 -31v-73h75q19 0 32 -13t13 -31t-13 -31t-32 -13z" />
    <glyph glyph-name="uniE60C" unicode="&#xe60c;" 
d="M512 -104q-15 17 -39.5 45.5t-87.5 110t-111.5 154t-88 158t-39.5 142.5q0 99 49 183.5t133.5 133.5t183.5 49t183.5 -49t133.5 -133.5t49 -183.5q0 -152 -257 -478q-61 -78 -109 -132zM512 750q-101 0 -172.5 -71.5t-71.5 -172.5t71.5 -172.5t172.5 -71.5t172.5 71.5
t71.5 172.5t-71.5 172.5t-172.5 71.5zM512.5 384q-50.5 0 -86.5 35.5t-36 86t36 86.5t86.5 36t86 -36t35.5 -86.5t-35.5 -86t-86 -35.5z" />
    <glyph glyph-name="uniE60D" unicode="&#xe60d;" 
d="M512 -79q-14 16 -38.5 43t-85.5 104t-108 146t-85.5 150.5t-38.5 135.5q0 94 47.5 174t129.5 126.5t179 46.5t179 -46.5t129.5 -126.5t47.5 -174q0 -54 -36.5 -133.5t-89 -154.5t-105 -142t-88.5 -108zM512 731q-98 0 -168 -67.5t-70 -163.5t70 -164t168 -68t168 68
t70 164t-70 163.5t-168 67.5zM631 456h-238q-18 0 -31 13t-13 31t13 30.5t31 12.5h238q18 0 31 -12.5t13 -30.5t-13 -31t-31 -13z" />
    <glyph glyph-name="uniE60E" unicode="&#xe60e;" 
d="M512 -104q-15 17 -39.5 45.5t-87.5 110t-111.5 154t-88 158t-39.5 142.5q0 99 49 183.5t133.5 133.5t183.5 49t183.5 -49t133.5 -133.5t49 -183.5q0 -152 -257 -478q-61 -78 -109 -132zM512 750q-101 0 -172.5 -71.5t-71.5 -172.5t71.5 -172.5t172.5 -71.5t172.5 71.5
t71.5 172.5t-71.5 172.5t-172.5 71.5z" />
    <glyph glyph-name="uniE60F" unicode="&#xe60f;" 
d="M350 330q0 2 1.5 7.5t5 18.5t7.5 27l1 3q3 10 11 16q9 7 25 7q-17 0 -25 -6.5t-11 -16.5l-1 -3q-14 -52 -14 -53q-4 -18 -7 -18q3 0 7 18zM597 386l1 -1q5 -19 9 -32.5t5 -17.5t1 -5q4 -18 6 -18q-2 0 -6 18q0 2 -15 56h-1q-2 10 -10.5 16.5t-25.5 6.5q17 0 25 -7
q9 -6 11 -16zM517 -81q9 66 31.5 124.5t51.5 101t62 81.5t64.5 74t56.5 70t40.5 78.5t15.5 91.5q0 87 -43.5 160.5t-119 116t-164.5 42.5v0v0q-89 0 -164.5 -42.5t-119 -116t-43.5 -160.5q0 -48 15.5 -91.5t40.5 -78.5t56.5 -70t64.5 -74t62 -81.5t51.5 -101t31.5 -124.5v0
q-1 -6 1 -8.5t4 -1.5q2 -1 4 1.5t1 8.5z" />
    <glyph glyph-name="uniE610" unicode="&#xe610;" 
d="M992 -36q0 -20 -14 -34t-34 -14q-15 0 -28 9v-1l-232 175l-325 -177q-11 -6 -23 -6q-16 0 -29 10l-253 190q-22 14 -22 40v640q0 20 14 34t34 14q17 0 30 -11l230 -172l326 177q11 6 22 6q17 0 30 -11l252 -189l4 -2v-1q18 -14 18 -37v-640zM288 60v520l-160 120v-520z
M640 715l-256 -140v-530l256 140v530zM896 580l-160 120v-520l160 -120v520z" />
    <glyph glyph-name="uniE611" unicode="&#xe611;" 
d="M868 568l-155 116v-322q-52 -17 -93 -55v392l-247 -135v-513l171 93q-1 -13 -1 -17q0 -41 14 -81l-208 -114q-11 -6 -23 -6q-15 0 -28 10l-245 183q-21 14 -21 39v620q0 19 13.5 32.5t32.5 13.5q16 0 29 -10l223 -167l316 172q10 5 21 5q16 0 29 -10l244 -183l3 -3
q18 -14 18 -36v-285q-40 38 -93 55v206zM280 568l-155 116v-502l155 -116v502zM790.5 329q83.5 0 142.5 -59t59 -142.5t-59 -142.5t-142.5 -59t-142.5 59t-59 142.5t59 142.5t142.5 59zM698 81h46v-47q0 -19 13.5 -32.5t33 -13.5t33 13.5t13.5 32.5v47h47q19 0 32.5 13.5
t13.5 32.5t-13.5 33t-32.5 14h-47v46q0 19 -13.5 32.5t-33 13.5t-33 -13.5t-13.5 -32.5v-46h-46q-19 0 -33 -14t-14 -33t14 -32.5t33 -13.5z" />
    <glyph glyph-name="uniE612" unicode="&#xe612;" 
d="M948 486l-51 -51l-143 142l51 51q12 12 28 13.5t26 -8.5l93 -93q10 -10 9 -26t-13 -28v0zM730 553l143 -143l-340 -339q-6 -6 -12 -7q-1 -1 -2 -1l-177 -57q-8 -2 -13.5 3t-2.5 13l56 177q1 2 1 3q2 8 8 14l65 60h-216q-7 0 -12 6t-5 12.5t5.5 13t11.5 6.5h249zM489 82
l-88 88l-23 -74l37 -38zM725 497q-9 9 -18 0l-265 -265q-10 -9 -0.5 -18.5t18.5 0.5l265 264q9 10 0 19v0zM133 -20q-18 0 -18 12v722q0 4 1 6.5t2 4t4 2.5t4 1h6h6h62v-24q0 -7 6.5 -12t13.5 -5t13.5 5t6.5 12v24h92v-24q0 -7 6 -12t13.5 -5t14 5t6.5 12v24h84v-24
q0 -7 6.5 -12t14 -5t13.5 5t6 12v24h85v-24q0 -7 6 -12t13.5 -5t14 5t6.5 12v24h71q14 0 14 -14v-119l52 51v68q0 28 -19 46.5t-47 18.5h-71v45q0 7 -6.5 12t-14 5t-13.5 -5t-6 -12v-45h-85v45q0 7 -6.5 12t-13.5 5t-13.5 -5t-6.5 -12v-45h-84v45q0 7 -6.5 12t-14 5
t-13.5 -5t-6 -12v-45h-92v45q0 7 -6.5 12t-13.5 5t-13.5 -5t-6.5 -12v-45h-62q-37 1 -56 -17.5t-19 -47.5v-722q0 -27 21 -46t50 -19h558q28 0 47 18.5t19 46.5v251l-52 -52v-199q0 -12 -14 -12h-559zM575 583h-336q-7 0 -11.5 -6.5t-4.5 -13.5t4.5 -13.5t11.5 -6.5h336
q6 0 10.5 6.5t4.5 13.5t-4.5 13.5t-10.5 6.5zM575 452h-336q-7 0 -11.5 -6.5t-4.5 -13.5t4.5 -13.5t11.5 -6.5h336q6 0 10.5 6.5t4.5 13.5t-4.5 13.5t-10.5 6.5z" />
    <glyph glyph-name="uniE613" unicode="&#xe613;" 
d="M451 780h61v-61h-61v61zM329 597h122l183 183v61h-305v-244zM85 719v-731l61 -61h671l61 61v426l-74 -82v-330h-644v599h120v60h-120v60h120v60l-134 -1zM268 171l-61 -122l122 61zM878 597l61 61v61l-61 61h-61l-61 -61zM268 232l122 -122l427 426l-122 122z" />
    <glyph glyph-name="uniE614" unicode="&#xe614;" 
d="M946 703l-320 -319l320 -319q23 -24 23 -57.5t-23.5 -57t-57 -23.5t-57.5 23l-319 320l-319 -320q-24 -23 -57.5 -23t-57 23.5t-23.5 57t23 57.5l320 319l-320 319q-23 24 -23 57.5t23.5 57t57 23.5t57.5 -23l319 -320l319 320q24 23 57.5 23t57 -23.5t23.5 -57
t-23 -57.5z" />
    <glyph glyph-name="uniE615" unicode="&#xe615;" 
d="M640 513q0 4 1 11t5.5 29t12 42.5t22 46.5t34 47t49.5 39.5t67 26.5v78l128 -129l-127 -128v78q-3 1 -7.5 1t-18 -1.5t-27 -5.5t-32.5 -14t-36.5 -24.5t-36.5 -39.5t-34 -57zM320 576h256v-64h-256v64zM320 320h385v-64h-385v64zM894 514h-64v-386h-574v576h385v64h-449
v-127h-128v-704h702v127h128v450zM702 1h-574v576h64v-513h510v-63z" />
    <glyph glyph-name="uniE616" unicode="&#xe616;" 
d="M728 332q-58 0 -107 -29q-73 -43 -98 -123q-9 -31 -9 -63q0 -88 62.5 -151t151.5 -63t151.5 63t62.5 151.5t-62.5 151.5t-151.5 63zM728 -64q-75 0 -128 53t-53 128q0 33 11 63q17 47 56 78.5t90 38.5q-5 6 -12 6q7 0 12 -6q12 2 24 2q75 0 128 -53.5t53 -128.5t-53 -128
t-128 -53zM835 142h-79v83q0 6 -4 9.5t-9 3.5h-27q-6 0 -10 -5v-39q0 -5 -3 -9v-43h-79q-5 0 -9 -3.5t-4 -9.5v-24q0 -6 4 -9.5t9 -3.5h79v-84q0 -6 4 -9.5t9 -3.5h27q5 0 9 3.5t4 9.5v84h79q5 0 9 3.5t4 9.5v24q0 6 -4 9.5t-9 3.5zM706 234q-3 -4 -3 -9v-39q3 3 3 8v40z
M581 450q-10 7 -22.5 5.5t-20.5 -11.5l-147 -182l-49 54q-8 9 -20.5 10t-22.5 -7t-11 -20.5t7 -21.5l74 -82q9 -10 23 -10h1q14 0 23 11l171 212q8 9 6 21.5t-12 20.5zM162 15v693h48q2 36 25 63h-104q-13 0 -22.5 -9t-9.5 -22v-757q0 -13 9.5 -22t22.5 -9h383
q-17 30 -25 63h-327zM703 708v-352q27 5 54 5h9v379q0 13 -9 22t-22 9h-105q24 -27 26 -63h47zM318 626h230q29 0 50 21t21 50v4q0 4 -1 7q-2 25 -19.5 42.5t-41.5 20.5q-5 1 -9 1h-31v6q0 29 -21 49.5t-50 20.5h-26q-30 0 -50.5 -20.5t-20.5 -49.5v-6h-31q-4 0 -9 -1
q-25 -3 -42 -21t-19 -42q-1 -4 -1 -7v-4q0 -29 21 -50t50 -21z" />
    <glyph glyph-name="uniE617" unicode="&#xe617;" 
d="M485 62q-56 -1 -149 -1h-149q-15 0 -21 4.5t-6 19.5q1 269 0 601q0 13 5 18.5t20 4.5q234 -1 483 0q7 0 11.5 -4t4.5 -10q-1 -62 -1 -337v-11q0 -6 4.5 -10.5t10.5 -4.5h5q6 0 10.5 4.5t4.5 10.5v8v361q0 20 -3.5 23t-23.5 3h-535q-22 0 -26 -3.5t-4 -24.5v-636
q0 -38 6.5 -44.5t45.5 -6.5h333q10 0 14 9.5t-4 15.5q-12 10 -36 10v0zM880 108q-8 16 -37 49q-12 15 -29 3q-3 -2 -8.5 -2t-8.5 2q-19 14 -32 -6q-2 -2 -6.5 -4t-6.5 -1q-28 17 -33 -18h-5q-10 18 -11 19q-2 8 -6.5 24.5t-7.5 24.5q-9 25 -17 38q-2 3 -9 5t-12 1
q-2 0 -4.5 -6t-2.5 -11q0 -6 6 -25q3 -9 18 -58t23 -76q7 -25 -2 -34.5t-37 -7.5q-2 0 -6.5 1.5t-7.5 1.5q-33 -2 -44 -5q-7 -2 -8 -20q-1 -4 16 -7q1 -1 27.5 -5t38.5 -9q17 -8 35 -18t39.5 -22.5t34.5 -18.5q7 -4 15 -1q45 15 88 32q11 4 12 11q15 85 -12 143zM616 515
h-193h-195h-2q-7 0 -10.5 -0.5t-7 -4.5t-2.5 -12q0 -11 5 -13t17 -2h387q8 0 11.5 0.5t7 4t4 11t-3 11t-7 4.5t-11.5 1zM617 401h-391q-11 0 -15.5 -2.5t-4.5 -12.5q-1 -8 2 -11.5t7 -4.5t11 -1h195h195q8 0 11.5 1t7 4.5t2.5 10.5q0 10 -5 13t-15 3zM634 184q-17 27 -18 28
q-24 28 -7 56q9 13 23.5 19.5t27.5 2.5q17 -3 28 -16t13 -30q0 -2 5 -31q16 24 9 49t-32 39q-26 12 -53.5 3t-39.5 -34t0 -50t44 -36zM617 626h-193h-195h-2q-8 0 -11 -0.5t-6.5 -4.5t-3.5 -11q1 -11 6 -13.5t16 -2.5h388q8 0 11.5 0.5t7 4t3.5 11.5q0 11 -5 13.5t-16 2.5z
M221 153h141h142q5 -1 8 0t5.5 4.5t1.5 11.5q0 9 -3.5 12t-10.5 3h-285q-7 0 -10.5 -2.5t-3.5 -12.5q-1 -8 1.5 -11.5t5 -4.5t8.5 0zM544 297h-321q-9 0 -12.5 -3t-4.5 -13q0 -7 2.5 -11t5.5 -4.5t9 -0.5h160h160q6 0 9 0.5t5.5 4.5t2.5 11q0 10 -4 13t-12 3zM833 333v133
v325v28q0 21 -4 24.5t-26 3.5h-535q-19 0 -23 -3t-4 -19v-63q0 -8 9 -8h17q9 0 9 8v17q0 1 1 2q3 14 15 23.5t27 9.5q234 -1 456 0q14 0 19 -5t5 -18v-535v-27q1 -2 6.5 -5.5t11.5 -3.5t11 4t5 8v101z" />
    <glyph glyph-name="uniE618" unicode="&#xe618;" horiz-adv-x="1025" 
d="M597 498v68q9 0 27 1h1v7q0 6 -1 7h-27q0 13 -3 23v1h22h9q2 10 -1 14h-37q-10 19 -20 24h41q16 0 17 1q2 10 -1 14h-84q-1 0 -13 3q-5 1 -14 2q-5 0 -27 -5h-7h-7h-56h-23v-15h64q-2 -2 -6.5 -6t-5.5 -6q-1 -1 -4 -5t-4 -7h-31h-13v-14h27q10 0 10 -1q-3 -9 -3 -23h-34
q-1 -2 -0.5 -7.5t1.5 -7.5h33v-68q-3 0 -12 -0.5t-12.5 -0.5t-10.5 0.5t-10.5 2t-7.5 3.5t-7 5q-5 6 -7 13q-1 3 -1 18v33v150v60q0 26 1 29q6 19 27 22q102 1 202 1h14h14q4 0 11.5 -0.5t10.5 -1.5l8 -4q5 -3 7.5 -7t4.5 -10q1 -3 1 -24v-47v-154v-43q0 -19 -1 -22
q-2 -7 -7 -13q-2 -3 -5 -4.5t-7 -3t-7 -2t-8 -0.5t-8 -0.5t-10 0t-10 0.5zM393 774v-8v-7h170h44h18q2 10 -1 15h-231zM394 737v-1h-1v-14h165h47h20q2 10 -1 14q-116 0 -230 1zM394 698l-1 -1q0 -17 1 -17q87 -1 173 -1h41q16 0 17 1v17l-1 1h-115h-115zM509 625
q40 0 48 -36v-19v-36v-154l1 -24v-36q7 8 22 23.5t22 23.5q16 18 26 23q19 8 36.5 1.5t24.5 -21.5q3 -5 4 -11q2 -4 0.5 -10.5t-1.5 -9t-3.5 -7.5t-4.5 -6.5t-5 -6t-5 -5.5q-17 -18 -51.5 -54t-51.5 -55q-6 -5 -17 -17q-9 -11 -17.5 -16.5t-24.5 -7.5q-21 -2 -52 34
l-106 112l-14 14q-16 21 -7 43q7 17 26 24.5t39 -2.5q10 -5 24 -22q20 -21 30 -31l6 -6q6 -7 9 -10v199v41q0 33 5 42q9 14 24 20q2 1 6.5 1.5t6.5 1.5zM209 20h606v135q0 4 -0.5 14.5t0 14.5t1 12t2.5 13t5 9q7 10 21 15.5t30 0.5q25 -7 31 -33q1 -3 1 -18v-33v-117v-41
q0 -23 -3 -30q-8 -20 -30 -26q-6 -2 -25 -2h-32h-116h-382h-118h-28q-14 0 -17 1q-11 2 -22 10q-3 3 -6 6.5t-4.5 8.5t-2.5 9t-1.5 10.5t-0.5 10.5t0.5 13t0.5 12v142q0 4 -0.5 14t0 13t0.5 10.5t1.5 10.5t3.5 8t5.5 8.5t7.5 6.5q18 11 37.5 6.5t28.5 -19.5q3 -4 4.5 -9
t2 -12.5t0.5 -12.5t-0.5 -14t-0.5 -13v-134z" />
    <glyph glyph-name="uniE619" unicode="&#xe619;" horiz-adv-x="1025" 
d="M900 1v646h-143h-32q-15 0 -18 1q-10 2 -18 7q-14 9 -19 28t6 38q9 17 29 22q4 1 19 1h31h148h16h16q5 0 13.5 -1t13 -2.5t10 -5t8.5 -8.5q8 -10 11 -21q1 -5 1 -19v-30v-126v-409v-123v-34q0 -20 -2 -26q-8 -27 -34 -34q-4 -1 -22 -1h-36h-123h-47q-22 0 -29 3
q-22 9 -29 32q-4 15 1.5 30t16.5 23q8 6 18 8q3 1 18 1h31h145zM146 581h265v-184h-8h-10v164h-229v-41h190v-123h-18v104h-229v-41h191v-63q-4 0 -18 -2v47h-229v-340h229v149q7 -2 18 -3v-87h18h20v87h18v-27h39v27h18v-46h-57v-59h-28h-28v-61h-266v378h56v60q55 0 58 1
v60zM543 517q5 0 9.5 -1t7.5 -2t6.5 -3t5 -3t5.5 -5t5 -4q2 -3 6.5 -7t8.5 -7.5t7 -6.5q11 -11 37.5 -35.5t46.5 -42.5t37 -36q30 -25 18 -58q-5 -14 -24 -30q-18 -17 -27 -25q-97 -92 -118 -111q-11 -9 -25.5 -10.5t-28.5 7.5q-13 9 -18.5 27t3.5 38q6 9 20 21q52 49 54 51
h-244h-28q-14 0 -18 2q-20 5 -30 23q-8 14 -6 26q5 36 33 44q6 2 28 2h47h218v1h-1q-9 9 -27 26q-3 3 -10 9.5t-10 9.5l-9 7q-3 3 -8 8.5t-8 10.5t-5.5 11.5t-2 14t3.5 15.5q2 7 6 13q9 12 22 17q6 2 9 2h3zM89 401h152v-20h-152v20zM88 340h142q-2 -6 -2 -17h-140v17z
M88 281h152v-20h-152v20zM88 222h152v-20h-152v20zM88 161h152v-19h-152v19z" />
    <glyph glyph-name="uniE61A" unicode="&#xe61a;" 
d="M142 605h547v-54h-547v54zM142 486h547v-55h-547v55zM867 143h-65v66q0 8 -6 14t-14 6t-14 -6t-6 -14v-66h-65q-9 0 -14.5 -5.5t-5.5 -13.5t5.5 -14t14.5 -6h65v-66q0 -8 6 -13.5t14 -5.5t14 5.5t6 13.5v66h65q9 0 14.5 6t5.5 14t-5.5 13.5t-14.5 5.5zM782 334
q-87 0 -148.5 -61.5t-61.5 -148.5t61.5 -148.5t148.5 -61.5t148.5 61.5t61.5 148.5t-61.5 148.5t-148.5 61.5zM782 -47q-71 0 -121 50t-50 120.5t50 120.5t121 50t121 -50t50 -120.5t-50 -120.5t-121 -50zM142 69h376q-6 27 -6 55h-370v-55zM544 248h-402v-55h380
q8 28 22 55zM671 369h-529v-55h449q33 34 80 55zM562 -32h-475v767h31v-29q0 -12 8 -20t19 -8t19 8t8 20v29h54v-29q0 -12 8 -20t19 -8t19.5 8t8.5 20v29h53v-29q0 -12 8 -20t19.5 -8t19.5 8t8 20v29h54v-29q0 -12 8.5 -20t19.5 -8t19 8t8 20v29h54v-29q0 -12 8 -20t19.5 -8
t19.5 8t8 20v29h53v-29q0 -12 8 -20t19 -8t19.5 8t8.5 20v29h29v-345q27 4 38 4q3 0 9 -1t8 -1v398h-84v25q0 12 -8.5 20t-19.5 8t-19 -8t-8 -20v-25h-53v25q0 12 -8 20t-19.5 8t-19.5 -8t-8 -20v-25h-54v25q0 12 -8 20t-19 8t-19.5 -8t-8.5 -20v-25h-54v25q0 12 -8 20
t-19.5 8t-19.5 -8t-8 -20v-25h-53v25q0 12 -8.5 20t-19.5 8t-19 -8t-8 -20v-25h-54v25q0 12 -8 20t-19 8t-19 -8t-8 -20v-25h-86v-876h582q-32 25 -52 54z" />
    <glyph glyph-name="uniE61B" unicode="&#xe61b;" 
d="M76 820v-872h872v872h-872zM902 -6h-780v780h780v-780zM222 428h580v-88h-580v88z" />
    <glyph glyph-name="uniE61C" unicode="&#xe61c;" 
d="M512 -73q-93 0 -177.5 36t-146 97.5t-97.5 146t-36 177.5t36 177.5t97.5 146t146 97.5t177.5 36t177.5 -36t146 -97.5t97.5 -146t36 -177.5t-36 -177.5t-97.5 -146t-146 -97.5t-177.5 -36zM512 755q-101 0 -186.5 -49.5t-135 -135t-49.5 -186.5t49.5 -186.5t135 -135
t186.5 -49.5t186.5 49.5t135 135t49.5 186.5t-49.5 186.5t-135 135t-186.5 49.5zM698 341h-372q-17 0 -30 12.5t-13 30.5t13 30.5t30 12.5h372q17 0 30 -12.5t13 -30.5t-13 -30.5t-30 -12.5z" />
    <glyph glyph-name="uniE61D" unicode="&#xe61d;" 
d="M512 -73q-93 0 -177.5 36t-146 97.5t-97.5 146t-36 177.5t36 177.5t97.5 146t146 97.5t177.5 36t177.5 -36t146 -97.5t97.5 -146t36 -177.5t-36 -177.5t-97.5 -146t-146 -97.5t-177.5 -36zM512 755q-101 0 -186.5 -49.5t-135 -135t-49.5 -186.5t49.5 -186.5t135 -135
t186.5 -49.5t186.5 49.5t135 135t49.5 186.5t-49.5 186.5t-135 135t-186.5 49.5zM698 341h-143v-143q0 -17 -12.5 -30t-30.5 -13t-30.5 13t-12.5 30v143h-143q-17 0 -30 12.5t-13 30.5t13 30.5t30 12.5h143v143q0 17 12.5 30t30.5 13t30.5 -13t12.5 -30v-143h143
q17 0 30 -12.5t13 -30.5t-13 -30.5t-30 -12.5z" />
    <glyph glyph-name="uniE61E" unicode="&#xe61e;" 
d="M512 -73q-93 0 -177.5 36t-146 97.5t-97.5 146t-36 177.5t36 177.5t97.5 146t146 97.5t177.5 36t177.5 -36t146 -97.5t97.5 -146t36 -177.5t-36 -177.5t-97.5 -146t-146 -97.5t-177.5 -36zM512 755q-101 0 -186.5 -49.5t-135 -135t-49.5 -186.5t49.5 -186.5t135 -135
t186.5 -49.5t186.5 49.5t135 135t49.5 186.5t-49.5 186.5t-135 135t-186.5 49.5zM669 184q-18 0 -30 13l-127 126l-127 -126q-12 -13 -30 -13t-30.5 12.5t-12.5 30.5t13 30l126 127l-126 127q-13 12 -13 30t12.5 30.5t30.5 12.5t30 -13l127 -126l127 126q12 13 30 13
t30.5 -12.5t12.5 -30.5t-13 -30l-126 -127l126 -127q13 -12 13 -30t-12.5 -30.5t-30.5 -12.5z" />
    <glyph glyph-name="uniE61F" unicode="&#xe61f;" 
d="M512 -73q-93 0 -177.5 36t-146 97.5t-97.5 146t-36 177.5t36 177.5t97.5 146t146 97.5t177.5 36t177.5 -36t146 -97.5t97.5 -146t36 -177.5t-36 -177.5t-97.5 -146t-146 -97.5t-177.5 -36zM141 384q0 -101 49.5 -186.5t135 -135t186.5 -49.5q129 0 230 80l-521 521
q-80 -101 -80 -230zM512 755q-129 0 -230 -80l521 -521q80 101 80 230q0 101 -49.5 186.5t-135 135t-186.5 49.5z" />
    <glyph glyph-name="uniE620" unicode="&#xe620;" 
d="M512 -73q-93 0 -177.5 36t-146 97.5t-97.5 146t-36 177.5t36 177.5t97.5 146t146 97.5t177.5 36t177.5 -36t146 -97.5t97.5 -146t36 -177.5t-36 -177.5t-97.5 -146t-146 -97.5t-177.5 -36zM512 755q-101 0 -186.5 -49.5t-135 -135t-49.5 -186.5t49.5 -186.5t135 -135
t186.5 -49.5t186.5 49.5t135 135t49.5 186.5t-49.5 186.5t-135 135t-186.5 49.5zM714 468l-229 -229q-12 -12 -30 -12t-30 12l-129 129q-13 13 -13 30.5t13 30t30.5 12.5t30.5 -12l98 -99l198 199q13 12 30.5 12t30 -12.5t12.5 -30t-12 -30.5zM712 541zM355 184zM669 184z
M712 227z" />
    <glyph glyph-name="uniE621" unicode="&#xe621;" 
d="M840 841h-656q-55 0 -93.5 -38t-38.5 -92v-654q0 -54 38.5 -92t93.5 -38h656q55 0 93.5 38t38.5 92v654q0 54 -38.5 92t-93.5 38zM698 228q0 -17 -11.5 -29.5t-28.5 -12.5h-292q-17 0 -28.5 12.5t-11.5 29.5v312q0 17 11.5 29.5t28.5 12.5h292q17 0 28.5 -12.5
t11.5 -29.5v-312z" />
    <glyph glyph-name="uniE622" unicode="&#xe622;" 
d="M839 841h-654q-54 0 -92 -38t-38 -92v-654q0 -54 38 -92t92 -38h654q54 0 92 38t38 92v654q0 54 -38 92t-92 38zM467 232q0 -19 -13.5 -32.5t-32 -13.5t-32 13.5t-13.5 32.5v304q0 19 13.5 32.5t32 13.5t32 -13.5t13.5 -32.5v-304zM648 232q0 -19 -13.5 -32.5t-32 -13.5
t-32 13.5t-13.5 32.5v304q0 19 13.5 32.5t32 13.5t32 -13.5t13.5 -32.5v-304z" />
    <glyph glyph-name="uniE623" unicode="&#xe623;" 
d="M839 841h-654q-54 0 -92 -38t-38 -92v-654q0 -54 38 -92t92 -38h654q54 0 92 38t38 92v654q0 54 -38 92t-92 38zM678 350l-291 -172v0q-10 -6 -20 -6q-17 0 -28.5 12t-11.5 28v344q0 16 11.5 28t28.5 12q10 0 20 -6v0l291 -172q19 -11 19 -34t-19 -34z" />
    <glyph glyph-name="uniE624" unicode="&#xe624;" 
d="M772 639h-523v-38h523v38zM772 525h-523v-39h523v39zM772 410h-523v-38h523v38zM849 831h-677q-17 0 -26.5 -9.5t-10.5 -18.5l-1 -9v-819q0 -1 0.5 -3.5t2.5 -9t5.5 -11.5t11 -9t18.5 -4h414l301 298v558v4q0 2 -2.5 8.5t-6 11.5t-11 9t-18.5 4zM849 231l-268 -255v255
h268v39h-268q-17 0 -26.5 -10t-10.5 -19l-1 -10v-255l-371 -1v819h677v-563zM364 279l-18 -9q2 -3 8 -17t10 -22l21 14q-14 24 -21 34zM260 30q72 25 105 51q33 -26 102 -50q6 9 17 22q-70 18 -103 42q43 42 56 111h45l-3 25h-230l-2 -7v-18h46q13 -64 57 -111
q-35 -26 -105 -47q8 -10 15 -18zM313 206h103q-10 -62 -50 -99q-42 39 -53 99z" />
    <glyph glyph-name="uniE625" unicode="&#xe625;" 
d="M492 99q4 -17 12 -37q8 -21 24 -41.5t41 -41t61 -37.5q-24 -7 -57 -11q-27 -3 -68 -6q-39 -3 -92 -3q-28 0 -62 2t-72 6q-36 3 -74 8q-37 5 -67 9q-30 5 -51 10t-26 9q-9 8 -14.5 46t4.5 97q5 34 27.5 51.5t51.5 27.5q29 11 61 20q31 9 56 24q20 12 30 23.5t14 22.5t4 23
q0 11 -1 25q-1 23 -13.5 35t-28.5 25q-7 6 -13 18t-10 23q-5 14 -9 29q-7 2 -13 6q-6 5 -12 13t-10.5 24t-3 28.5t4.5 22.5q4 11 11 20q0 36 4 70q4 30 13 64q9 33 29 60q17 25 38.5 41t43.5 25.5t44.5 13t43.5 3.5q26 0 51 -6q25 -7 45.5 -17t37 -23t26.5 -26
q23 -29 34.5 -65t16.5 -67q5 -37 4 -74q6 -4 10 -12q3 -6 5.5 -16t0.5 -25q-2 -21 -7.5 -32.5t-13.5 -17.5q-8 -7 -17 -10q-6 -17 -10 -29t-9.5 -23.5t-13.5 -17.5q-8 -8 -12.5 -14.5t-7.5 -14.5q-1 -2 -6 -16q-3 -9 -10 -19q-21 -33 -33 -62.5t-16.5 -57t-2.5 -52.5
q2 -26 7 -51v0zM965 -24q13 -16 14 -27t-9 -21q-5 -7 -14 -7.5t-19 3.5q-9 4 -18 9q-9 6 -15 11l-65 59q-26 -15 -55 -22t-58 -5t-56.5 14t-50.5 36q-25 26 -38 58.5t-13 66.5t13 67t38 59q26 26 58 38.5t65 12.5t65.5 -12.5t58.5 -38.5q22 -24 35 -52q12 -29 14.5 -58.5
t-4.5 -59t-23 -54.5l35 -35l26 -26q12 -13 16 -16v0zM744 33q24 0 45.5 9.5t37 25.5t24.5 37.5t9 46.5t-9 46t-24.5 37.5t-37 25.5t-45.5 9t-45 -9t-37 -25.5t-25 -37.5t-9 -46t9 -46.5t25 -37.5t37 -25.5t45 -9.5z" />
    <glyph glyph-name="uniE626" unicode="&#xe626;" 
d="M760 -39q-42 0 -80 16.5t-66.5 44.5t-44.5 66t-16 80.5t16 80.5t44.5 66t66 44t80.5 16t81 -16t65.5 -44t44 -66t16.5 -80.5t-16.5 -80.5t-44.5 -66t-65.5 -44.5t-80.5 -16.5zM862 202h-203q-14 0 -24.5 -10t-10.5 -24t10.5 -21.5t24.5 -7.5h203q18 1 25 7q10 8 10 22
t-10.5 24t-24.5 10zM612 454q-4 -16 -8 -29q-4 -11 -10 -23q-6 -11 -13 -17q-9 -8 -13 -16q-3 -7 -6 -16q-2 -8 -5 -18q-4 -9 -11 -18q-23 -31 -35 -59q-11 -29 -15.5 -55t-2.5 -52t8 -50q4 -18 12 -38t24 -40.5t40 -40.5t61 -38q-25 -5 -57 -9q-28 -3 -68 -6q-39 -2 -91 -2
q-26 0 -61 2t-72 5q-39 3 -73 7q-37 4 -66 9q-30 4 -50.5 9t-25.5 9q-10 8 -15 45.5t3 96.5q6 34 27.5 51.5t51 27.5t61.5 18.5t56 24.5q19 12 29 22.5t14 21.5t4 23t-1 27q-2 21 -14.5 33t-26.5 24q-8 7 -14 19t-10 23q-5 13 -8 29q-8 2 -14 6q-5 5 -11 13t-11 24
q-5 15 -3.5 28.5t5.5 22.5q4 11 11 19q0 34 4 69q4 29 13 62.5t28 59.5q18 25 38.5 41.5t43 25.5t44.5 13q22 3 43 3q26 0 50.5 -6t45 -16t37 -23t26.5 -26q23 -29 33.5 -64.5t15.5 -66.5q6 -37 4 -73q7 -5 11 -12t6 -17t0 -25q-2 -19 -8 -30t-14 -18t-17 -10z" />
    <glyph glyph-name="uniE627" unicode="&#xe627;" 
d="M760 -39q-42 0 -80 16.5t-66.5 44.5t-44.5 66t-16 80.5t16 80.5t44.5 66t66 44t80.5 16t81 -16t65.5 -44t44 -66t16.5 -80.5t-16.5 -80.5t-44.5 -66t-65.5 -44.5t-80.5 -16.5zM862 202h-75v70q0 14 -9 24.5t-23 10.5t-22 -10.5t-8 -24.5v-70h-66q-14 0 -24.5 -10
t-10.5 -24t10.5 -21.5t24.5 -7.5h66v-71q0 -15 8 -25t22 -10t23 10t9 25v71h75v-2q15 0 25 8.5t10 22.5t-10.5 24t-24.5 10zM612 454q-4 -16 -8 -29q-4 -11 -10 -23q-6 -11 -13 -17q-9 -8 -13 -16q-3 -7 -6 -16q-2 -8 -5 -18q-4 -9 -11 -18q-23 -31 -35 -59
q-11 -29 -15.5 -55t-2.5 -52t8 -50q4 -18 12 -38t24 -40.5t40 -40.5t61 -38q-25 -5 -57 -9q-28 -3 -68 -6q-39 -2 -91 -2q-26 0 -61 2t-72 5q-39 3 -73 7q-37 4 -66 9q-30 4 -50.5 9t-25.5 9q-10 8 -15 45.5t3 96.5q6 34 27.5 51.5t51 27.5t61.5 18.5t56 24.5q19 12 29 22.5
t14 21.5t4 23t-1 27q-2 21 -14.5 33t-26.5 24q-8 7 -14 19t-10 23q-5 13 -8 29q-8 2 -14 6q-5 5 -11 13t-11 24q-5 15 -3.5 28.5t5.5 22.5q4 11 11 19q0 34 4 69q4 29 13 62.5t28 59.5q18 25 38.5 41.5t43 25.5t44.5 13q22 3 43 3q26 0 50.5 -6t45 -16t37 -23t26.5 -26
q23 -29 33.5 -64.5t15.5 -66.5q6 -37 4 -73q7 -5 11 -12t6 -17t0 -25q-2 -19 -8 -30t-14 -18t-17 -10z" />
    <glyph glyph-name="uniE628" unicode="&#xe628;" 
d="M508 841q26 0 52 -6t49 -16t40.5 -22.5t27.5 -25.5q24 -29 35 -64.5t16 -67.5q4 -36 4 -73q7 -5 10 -12q4 -7 6 -17t1 -24q-2 -20 -8 -31t-13 -18q-9 -7 -18 -10q-4 -14 -9 -29q-4 -12 -10 -23.5t-14 -17.5q-17 -14 -28 -23q-11 -10 -15 -33q-2 -13 -1 -27.5t7.5 -28.5
t21 -26.5t39.5 -22.5q23 -10 50 -17t52.5 -16.5t45 -24t27.5 -38.5q5 -15 7 -36.5t2 -43t-3 -41t-9 -29.5q-5 -6 -26 -13q-22 -6 -53.5 -12t-70 -10.5t-78.5 -7.5q-38 -3 -75 -5q-35 -2 -62 -2t-62 2q-36 2 -72 5q-38 3 -74.5 7t-67.5 9q-30 4 -51 8.5t-26 9.5
q-10 7 -15 44.5t4 96.5q5 34 27.5 52t51.5 28q30 11 62 19t57 24q19 12 29 22.5t14.5 21.5t4.5 23t-1 27q-2 21 -15 33t-28 25q-7 6 -12.5 17.5t-10.5 23.5q-4 14 -9 29q-6 2 -13 7q-5 4 -11.5 12.5t-10.5 23.5q-6 16 -4.5 28.5t5.5 21.5q3 10 11 19q-1 35 4 70
q4 29 13.5 63t28.5 60q17 26 38.5 41.5t44 25t44.5 12.5t44 3z" />
    <glyph glyph-name="uniE629" unicode="&#xe629;" 
d="M394 210q2 -4 5 -7q45 -56 89 -93l30 -25l31 25q43 36 89 94q3 3 5 6q135 185 156 313q4 25 4 40q1 123 -85 210q-83 83 -200 83q-116 0 -199 -83q-86 -87 -85 -211q0 -15 3 -39q22 -130 157 -313zM518 665q49 0 84 -35t35 -84t-35 -83.5t-84 -34.5t-83.5 34.5
t-34.5 83.5t34.5 84t83.5 35zM966 621l-33 -9l-93 -28q-2 -35 -4 -55l97 33v-519l-277 -82l-331 95l-236 -79v513l98 25q-4 19 -4 44v2l-141 -36v-611l47 16l236 79l331 -95l324 95v616z" />
    <glyph glyph-name="uniE62A" unicode="&#xe62a;" 
d="M752 448v-437h73v437h182l-219 218l-218 -218h182zM24 812h109v-73h-109v73zM169 812h109v-73h-109v73zM315 812h73v-109h-73v109zM24 557h72v-109h-72v109zM133 521h109v-73h-109v73zM278 521h110v-73h-110v73zM24 703h72v-109h-72v109zM315 666h73v-109h-73v109z
M315 230v-219h-219v219h219zM388 302h-364v-364h364v364z" />
    <glyph glyph-name="uniE62B" unicode="&#xe62b;" 
d="M825 230v436h-73v-436h-182l218 -219l219 219h-182zM315 739v-218h-219v218h219zM388 812h-364v-364h364v364zM24 302h109v-72h-109v72zM169 302h109v-72h-109v72zM315 302h73v-109h-73v109zM24 47h72v-109h-72v109zM133 11h109v-73h-109v73zM278 11h110v-73h-110v73z
M24 193h72v-109h-72v109zM315 157h73v-110h-73v110z" />
    <glyph glyph-name="uniE62C" unicode="&#xe62c;" 
d="M76 820v-872h872v872h-872zM902 -6h-780v780h780v-780zM222 428h580v-88h-580v88zM464 654h96v-540h-96v540z" />
    <glyph glyph-name="uniE62D" unicode="&#xe62d;" 
d="M434.5 584q-26.5 0 -45 -18t-18.5 -44t18.5 -44.5t45 -18.5t45 18.5t18.5 44.5t-18.5 44t-45 18zM656 285l18 18q15 14 15 35t-15 35l-31 31q15 25 24 55h33q21 0 36 14.5t15 35.5v25q0 20 -15 35t-36 15h-33q-8 29 -23 54l30 29q15 15 15 35.5t-15 35.5l-18 18
q-15 14 -36 14t-35 -14l-30 -29q-27 15 -57 24v33q0 21 -15 35.5t-36 14.5h-25q-21 0 -36 -14.5t-15 -35.5v-33q-30 -9 -57 -24l-30 29q-14 14 -35 14t-36 -14l-18 -18q-15 -15 -15 -35.5t15 -35.5l30 -29q-15 -26 -23 -54h-33q-21 0 -36 -15t-15 -35v-25q0 -21 15 -35.5
t36 -14.5h33q9 -29 24 -55l-31 -31q-15 -14 -15 -35t15 -35l18 -18q15 -15 36 -15t35 15l32 31q26 -15 55 -23v-32q0 -21 15 -35.5t36 -14.5h25q21 0 36 14.5t15 35.5v32q29 8 55 23l32 -31q14 -15 35 -15t36 15zM434.5 383q-57.5 0 -98.5 40t-41 97t41 97.5t98.5 40.5
t98.5 -40.5t41 -97.5t-41 -97t-98.5 -40zM881 115h-16q-4 14 -11 26l15 14q7 7 7 17t-7 17l-9 9q-7 7 -17.5 7t-17.5 -7l-14 -14q-13 8 -28 12v16q0 10 -7 17t-17 7h-13q-10 0 -17 -7t-7 -17v-16q-15 -4 -28 -12l-14 14q-8 7 -18 7t-17 -7l-9 -9q-7 -7 -7 -17t7 -17l14 -14
q-7 -12 -10 -26h-16q-11 0 -18 -7.5t-7 -17.5v-12q0 -10 7 -17t18 -7h16q4 -14 11 -27l-15 -14q-7 -7 -7 -17.5t7 -17.5l9 -8q7 -7 17 -7t18 7l15 15q12 -7 27 -11v-16q0 -10 7 -17t17 -7h13q10 0 17 7t7 17v16q14 4 27 11l15 -15q7 -7 17.5 -7t17.5 7l9 8q7 7 7 17.5
t-7 17.5l-15 14q7 13 11 27h16q10 0 17.5 7t7.5 17v12q0 10 -7.5 17.5t-17.5 7.5zM752 17q-28 0 -47.5 19.5t-19.5 47.5t19.5 47.5t47.5 19.5t48 -20t20 -47.5t-20 -47t-48 -19.5zM752.5 115q-12.5 0 -21.5 -9t-9 -21.5t9 -21.5t21.5 -9t21.5 9t9 21.5t-9 21.5t-21.5 9z" />
    <glyph glyph-name="uniE62E" unicode="&#xe62e;" 
d="M900 513h-48q-20 52 -72 106q-48 64 -118 100t-150 36q-95 0 -175 -49.5t-126.5 -135t-46.5 -186.5q0 -18 -12 -30.5t-28.5 -12.5t-28.5 12.5t-12 30.5q0 124 57.5 229.5t156.5 166.5t215 61q106 0 197.5 -51.5t150.5 -139.5v77q0 18 12 30.5t28.5 12.5t28.5 -12.5
t12 -30.5v-172q0 -17 -12 -29.5t-29 -12.5zM124 255h34q25 -52 84 -104q48 -65 118.5 -101.5t151.5 -36.5q95 0 175 49.5t126.5 135t46.5 186.5q0 18 12 30.5t28.5 12.5t28.5 -12.5t12 -30.5q0 -124 -57.5 -229.5t-156.5 -166.5t-215 -61q-106 0 -197.5 51.5t-150.5 140.5
v-78q0 -18 -12 -30.5t-28.5 -12.5t-28.5 12.5t-12 30.5v172q0 17 12 29.5t29 12.5zM547 425q3 288 0 288q122 0 202.5 -82t80.5 -206h-283zM806 367q0 -129 -89.5 -220.5t-216.5 -91.5t-216.5 91.5t-89.5 220t89.5 220t216.5 91.5q9 0 24 -2v-274h281q1 -18 1 -35zM781 376
h-281v278q-117 0 -199.5 -84.5t-82.5 -203t82.5 -203t199.5 -84.5t200 84.5t83 203.5l-1 15z" />
    <glyph glyph-name="uniE62F" unicode="&#xe62f;" 
d="M713 461q-107 0 -182.5 -78.5t-75.5 -189.5q0 -109 75.5 -187.5t182.5 -78.5q105 0 180.5 78.5t75.5 187.5q0 111 -75.5 189.5t-180.5 78.5zM713 -31q-91 0 -154.5 66t-63.5 158q0 94 63.5 160.5t154.5 66.5q89 0 152.5 -66.5t63.5 -160.5q0 -92 -63.5 -158t-152.5 -66z
M803 298l-141 -176l-73 71q-14 13 -28 -1q-6 -6 -5 -14.5t6 -13.5l89 -87q4 -4 13 -4h1q8 0 15 7l153 192q12 15 -1 29q-7 5 -15.5 4t-13.5 -7zM257 238q-7 0 -12 -5.5t-5 -13.5v-11q0 -9 4.5 -15t12.5 -6h158q7 0 12.5 6t5.5 15v11q0 8 -5.5 13.5t-12.5 5.5h-158zM574 420
h-317q-8 0 -12.5 -6t-4.5 -15v-11q0 -8 5 -13.5t12 -5.5h261q19 23 56 51zM589 610h-332q-8 0 -12.5 -6t-4.5 -15v-8q0 -9 4.5 -15t12.5 -6h332q8 0 13 6t5 15v8q0 9 -5 15t-13 6zM549 -12v-10h-424q-9 0 -15 6.5t-6 15.5v768q0 9 6 16t15 7h596q9 0 15.5 -7t6.5 -16v-308
q31 -6 48 -12v351q0 17 -11 29.5t-27 12.5h-659q-16 0 -27.5 -12.5t-11.5 -29.5v-830q0 -17 11.5 -29.5t27.5 -12.5h468q18 4 33 19l7 8q-29 14 -53 34z" />
    <glyph glyph-name="uniE630" unicode="&#xe630;" 
d="M976 384q0 95 -36.5 180.5t-99 148t-148.5 99t-180 36.5t-180 -36.5t-148.5 -99t-99 -148t-36.5 -180.5q0 -116 53.5 -216.5t146.5 -165t206 -78.5q21 -4 48 -4q7 0 15 1q93 1 178.5 38t146.5 99t97.5 147.5t36.5 178.5zM910 378q-2 34 -9 68v22q9 -41 9 -84v-2v-4z
M114 384q0 42 9 82q12 -14 36 -12t31 22q5 -3 18 -8t18.5 -10.5t5.5 -15.5q0 -26 0.5 -42t4 -37.5t10 -34t19.5 -21.5t31 -10q3 0 11 -4t20.5 -17.5t19.5 -32.5q3 -6 10 -6t20 3t21 3q6 0 6 -5.5t-3 -23t-3 -34.5q0 -12 10 -27.5t23.5 -29.5t27 -26t23.5 -19l10 -8
q-1 -42 3 -70q-30 1 -53 -7q-141 25 -235 135.5t-94 255.5zM610 -1q-4 18 -28 11q9 37 13 51t12.5 31.5t21.5 28.5q19 19 18 34.5t-14.5 26t-28.5 8.5q-8 -2 -12 2.5t-4.5 10.5t-3.5 11.5t-10 6.5q-11 1 -38.5 26.5t-41.5 31.5q-1 1 -21.5 15t-35.5 15q-6 0 -14 -2t-14.5 -4
t-12.5 -3t-9.5 0t-3.5 5q0 22 -1.5 42t-3 37t-1.5 18q0 3 -1 5q-1 1 1 1q9 -2 22 -3q9 0 13 17t12 17q6 1 32 -5.5t31 -2.5q2 1 7 -7q3 -4 11 -19q26 -47 36 -48q12 -1 12 48q0 5 -2 16.5t-2 21.5t4 16q7 14 17 31.5t16 28.5t12 21.5t8.5 16.5t1.5 8t-9 3t-21 0.5t-24 -4.5
q-3 -1 -3 -9t-6 -9q-22 -4 -39 -0.5t-25.5 13t-1.5 19.5q5 7 21 11.5t29.5 12.5t15.5 26q3 30 6 71q31 -5 37 20q5 26 -25 47q-19 13 -46 16q127 -2 228.5 -76t142.5 -191q-4 4 -10 4q-15 38 -42 30q-24 -7 -28 -38q-2 -15 3 -31q-133 -102 -47 -183q23 -21 51 -65
q-8 -22 11 -21q26 1 53 38q9 11 15 25q-29 -101 -105.5 -175t-178.5 -100z" />
    <glyph glyph-name="uniE631" unicode="&#xe631;" 
d="M375 103h562v-113h-562v113zM375 440h562v-112h-562v112zM375 778h562v-113h-562v113zM206 834v-225h-56v169h-56v56h112zM150 372v-44h112v-56h-168v128l112 53v44h-112v56h168v-129zM262 215v-281h-168v56h112v56h-112v57h112v56h-112v56h168z" />
    <glyph glyph-name="uniE632" unicode="&#xe632;" 
d="M904 564v-588q0 -20 -14.5 -34.5t-34.5 -14.5h-686q-20 0 -34.5 14.5t-14.5 34.5v816q0 20 14.5 34.5t34.5 14.5h457q20 0 45 -10t39 -25l159 -159q14 -14 24.5 -38.5t10.5 -44.5zM839 515h-213q-20 0 -34.5 14t-14.5 35v212h-392v-784h654v523zM643 580h191
q-5 15 -11 21l-159 160q-6 5 -21 11v-192zM789 458l-175 -368h-104l-19 219h-2l-101 -219h-106l-47 368h106l11 -232h1l106 232h107l17 -229h1l84 229h121z" />
    <glyph glyph-name="uniE633" unicode="&#xe633;" 
d="M904 564v-588q0 -20 -14.5 -34.5t-34.5 -14.5h-686q-20 0 -34.5 14.5t-14.5 34.5v816q0 20 14.5 34.5t34.5 14.5h457q20 0 45 -10t39 -25l159 -159q14 -14 24.5 -38.5t10.5 -44.5zM839 515h-213q-20 0 -34.5 14t-14.5 35v212h-392v-784h654v523zM643 580h191
q-5 15 -11 21l-159 160q-6 5 -21 11v-192zM570 90l-58 90l-57 -90h-139l128 197l-128 195h138l58 -90l58 90h138l-126 -195l126 -197h-138z" />
    <glyph glyph-name="uniE634" unicode="&#xe634;" 
d="M512 859q-97 0 -185 -37.5t-151.5 -101t-101 -151.5t-37.5 -185t37.5 -185t101 -151.5t151.5 -101t185 -37.5t185 37.5t151.5 101t101 151.5t37.5 185t-37.5 185t-101 151.5t-151.5 101t-185 37.5zM512 -5q-106 0 -195.5 52t-141.5 141.5t-52 195.5t52 195.5t141.5 141.5
t195.5 52t195.5 -52t141.5 -141.5t52 -195.5t-52 -195.5t-141.5 -141.5t-195.5 -52zM643.5 595q-48.5 43 -129.5 43q-78 0 -126 -42.5t-51 -102.5l87 -11q9 42 33.5 63t60.5 21q37 0 59 -20t22 -48q0 -19 -12 -36q-9 -11 -50 -44q-41 -34 -55 -61t-14 -69v-23h86q0 40 7 55
t37 40q59 49 76 76q18 28 18 60q0 56 -48.5 99zM468 233h95v-95h-95v95z" />
    <glyph glyph-name="uniE635" unicode="&#xe635;" 
d="M512 -73q93 0 177.5 36t146 97.5t97.5 146t36 177.5t-36 177.5t-97.5 146t-146 97.5t-177.5 36t-177.5 -36t-146 -97.5t-97.5 -146t-36 -177.5t36 -177.5t97.5 -146t146 -97.5t177.5 -36zM540 171v-75h-66v75h66zM399 478h-68q0 197 190 193q166 -6 172 -162
q0 -56 -78 -125q-75 -69 -75 -119v-28h-66v41q0 59 79 134q59 60 65 97q-3 84 -90 94q-132 6 -129 -125z" />
    <glyph glyph-name="uniE636" unicode="&#xe636;" 
d="M736 832q-111 0 -193 -82v0l-31 -39l-31 37v0q-84 84 -193 84q-119 0 -203.5 -84.5t-84.5 -203.5t84 -204l383 -385q18 -19 45 -19t45 19l383 385q84 85 84 204t-84.5 203.5t-203.5 84.5z" />
    <glyph glyph-name="uniE637" unicode="&#xe637;" horiz-adv-x="1027" 
d="M975 447l-242 -176l93 -285q3 -7 3 -14q0 -19 -13.5 -32t-31.5 -13q-15 0 -27 9l-244 176l-244 -176q-12 -9 -27 -9q-18 0 -31.5 13.5t-13.5 31.5q0 7 3 14l93 285l-242 176q-19 13 -19 36q0 19 13 32t32 13h300l93 284q4 14 16 23t27 9t27 -9t16 -23l93 -284h300
q19 0 32 -13t13 -32q0 -23 -19 -36z" />
    <glyph glyph-name="uniE638" unicode="&#xe638;" 
d="M32 92l291 -117l3 698l-294 125v-706zM246 217h36q7 0 11.5 -6t4.5 -14.5t-4.5 -14.5t-11.5 -6h-36q-7 0 -11.5 6t-4.5 14.5t4.5 14.5t11.5 6zM168 336q5 6 11.5 6t11.5 -6l34 -45q12 -15 0 -30q-4 -6 -11 -6t-11 6l-35 45q-11 15 0 30zM72 460q4 6 11 6t11 -6l35 -45
q11 -14 0 -29q-5 -6 -11.5 -6t-11.5 6l-34 45q-12 14 0 29zM711 272q1 4 0 8v-8zM745 673v-703l246 93l1 696zM835 346l-35 -44q-4 -7 -11 -7t-11 7q-12 14 0 29l34 45q5 6 11.5 6t11.5 -6q3 -4 3 -11t-2 -13zM931 471l-34 -45q-5 -6 -11.5 -6t-11.5 6q-11 15 0 29l35 45
q4 6 11 6t11 -6q3 -3 3 -10.5t-1 -12.5zM358 -32l222 131l1 702l-223 -129v-704zM489 331l35 45q4 6 11 6t11 -6q3 -4 3 -11t-1 -13l-2 -6l-34 -44q-5 -7 -11.5 -7t-11.5 7q-11 14 0 29zM393 206l34 45q5 6 11.5 6t11.5 -6q3 -3 3 -10.5t-2 -13.5l-1 -5l-35 -45
q-4 -6 -11 -6t-11 6q-12 15 0 29zM684 261l-35 45q-11 15 0 30q5 6 11.5 6t11.5 -6l35 -45q3 -5 4 -11v396l-94 125l-2 -709l96 -127v307q-1 -6 -4 -11q-5 -6 -11.5 -6t-11.5 6z" />
    <glyph glyph-name="uniE639" unicode="&#xe639;" 
d="M934 384v-404q0 -22 -15.5 -37.5t-37.5 -15.5h-264q-21 0 -36.5 15.5t-15.5 37t15.5 37t36.5 15.5h211v704h-211q-21 0 -36.5 15.5t-15.5 37t15.5 37t36.5 15.5h264q22 0 37.5 -15.5t15.5 -37.5v-404v0zM635 422q18 -16 18 -39.5t-18 -38.5l-176 -159q-15 -13 -35 -13
q-22 0 -37.5 15.5t-15.5 37.5q0 23 18 39l73 66h-319q-22 0 -37.5 15.5t-15.5 37.5t15.5 37.5t37.5 15.5h319l-73 66q-18 16 -18 39q0 22 15.5 37.5t37.5 15.5q20 0 35 -14z" />
    <glyph glyph-name="uniE63A" unicode="&#xe63a;" 
d="M918 -73h-399q-21 0 -36 15t-15 36v52v4v5v4q1 36 17 57q40 53 106 71l44 -154q0 -10 7.5 -18t18 -8t18 8t7.5 18v123q0 13 9.5 22.5t23 9.5t23 -9.5t9.5 -22.5v-123q0 -10 7.5 -18t18 -8t18 8t7.5 18l44 154q66 -18 106 -71q16 -21 17 -57v-4v-5v-4v-52q0 -21 -15 -36
t-36 -15zM853 410q0 -40 -15 -82t-47 -73t-73 -31t-73 31t-47 73t-15 82q0 56 40 96t95.5 40t95 -40t39.5 -96zM664 575v1h-165v-148h65q-3 -12 -5 -29h-60v-148h40q-22 -15 -38 -30h-2v-2q-16 -15 -29 -32v34h-160q23 -116 70 -192q7 -2 29 -7v-3v-4q0 -7 1 -23
q-152 27 -253.5 145.5t-101.5 276.5q0 116 57 214.5t155.5 155.5t215.5 57q136 0 246 -78.5t155 -203.5q-55 46 -121 46q-51 0 -99 -30zM343 40q-42 75 -63 181h-146q34 -62 88 -109t121 -72zM119 251h157q-12 72 -13 148h-179q3 -75 35 -148zM84 428h179q1 78 12 148h-157
q-31 -69 -34 -148zM133 606h147q21 105 62 180q-66 -25 -120 -71.5t-89 -108.5zM470 812q-45 -1 -91 -14q-47 -78 -69 -192h160v206zM470 576h-165q-11 -70 -12 -148h177v148zM470 399h-177q1 -76 12 -148h165v148zM499 812v-206h160q-22 113 -69 191q-44 13 -91 15z
M627 785q41 -75 62 -179h142q-34 61 -86.5 107.5t-117.5 71.5z" />
    <glyph glyph-name="uniE63B" unicode="&#xe63b;" 
d="M920 -66h-816q-17 0 -29.5 12.5t-12.5 29.5v816q0 17 12.5 29.5t29.5 12.5h816q17 0 29.5 -12.5t12.5 -29.5v-816q0 -17 -12.5 -29.5t-29.5 -12.5zM878 750h-732v-732h732v732zM245 707h155q17 0 29.5 -12t12.5 -29.5t-12.5 -30t-29.5 -12.5h-127v-127q0 -17 -12.5 -29.5
t-30 -12.5t-29.5 12.5t-12 29.5v211h56zM189 272q0 17 12 29.5t29.5 12.5t30 -12.5t12.5 -29.5v-127h127q17 0 29.5 -12.5t12.5 -30t-12.5 -29.5t-29.5 -12h-211v211zM624 707h211v-211q0 -17 -12 -29.5t-29.5 -12.5t-30 12.5t-12.5 29.5v127h-127q-17 0 -29.5 12.5
t-12.5 30t12.5 29.5t29.5 12zM624 145h127v127q0 17 12.5 29.5t30 12.5t29.5 -12.5t12 -29.5v-211h-210q-18 0 -30.5 12t-12.5 29.5t12.5 30t29.5 12.5z" />
    <glyph glyph-name="uniE63C" unicode="&#xe63c;" 
d="M920 -66h-169q-17 0 -29.5 12.5t-12.5 30t12.5 29.5t29.5 12h127v127q0 17 12 29.5t29.5 12.5t30 -12.5t12.5 -29.5v-169q0 -17 -12.5 -29.5t-29.5 -12.5zM919.5 581q-17.5 0 -29.5 12.5t-12 29.5v127h-127q-17 0 -29.5 12t-12.5 29.5t12.5 30t29.5 12.5h169
q17 0 29.5 -12.5t12.5 -29.5v-169q0 -17 -12.5 -29.5t-30 -12.5zM273 750h-127v-127q0 -17 -12 -29.5t-29.5 -12.5t-30 12.5t-12.5 29.5v169q0 17 12.5 29.5t29.5 12.5h169q17 0 29.5 -12.5t12.5 -30t-12.5 -29.5t-29.5 -12zM189 707h646v-646h-646v646zM273 145h478v478
h-478v-478zM104.5 187q17.5 0 29.5 -12.5t12 -29.5v-127h127q17 0 29.5 -12t12.5 -29.5t-12.5 -30t-29.5 -12.5h-169q-17 0 -29.5 12.5t-12.5 29.5v169q0 17 12.5 29.5t30 12.5z" />
    <glyph glyph-name="uniE63D" unicode="&#xe63d;" 
d="M512 714l70 -105h-140zM842 219h-140l70 105zM182 219l70 105l70 -105h-140zM362 159l150 -225l150 225h300l-150 225l150 225h-300l-150 225l-150 -225h-300l150 -225l-150 -225h300zM842 549l-70 -105l-70 105h140zM512 54l-70 105h140zM292 384l110 165h220l110 -165
l-110 -165h-220zM182 549h140l-70 -105z" />
    <glyph glyph-name="uniE63E" unicode="&#xe63e;" 
d="M915 -66h-143q-19 0 -33 12t-14 29v82q0 17 14 29t33 12h95v245h-331v-245h47q20 0 33.5 -12t13.5 -29v-82q0 -17 -13.5 -29t-33.5 -12h-142q-20 0 -33.5 12t-13.5 29v82q0 17 13.5 29t33.5 12h47v245h-331v-245h94q20 0 34 -12t14 -29v-82q0 -17 -14 -29t-34 -12h-142
q-19 0 -33 12t-14 29v82q0 17 14 29t33 12v286h379v286h-47q-20 0 -33.5 12t-13.5 29v82q0 17 13.5 29t33.5 12h142q20 0 33.5 -12t13.5 -29v-82q0 -17 -13.5 -29t-33.5 -12h-47v-286h379v-286q19 0 33 -12t14 -29v-82q0 -17 -14 -29t-33 -12z" />
    <glyph glyph-name="uniE63F" unicode="&#xe63f;" 
d="M512 -73q-93 0 -177.5 36t-146 97.5t-97.5 146t-36 177.5t36 177.5t97.5 146t146 97.5t177.5 36t177.5 -36t146 -97.5t97.5 -146t36 -177.5t-36 -177.5t-97.5 -146t-146 -97.5t-177.5 -36zM512 755q-101 0 -186.5 -49.5t-135 -135t-49.5 -186.5t49.5 -186.5t135 -135
t186.5 -49.5t186.5 49.5t135 135t49.5 186.5t-49.5 186.5t-135 135t-186.5 49.5zM626 227h-228q-18 0 -30.5 12.5t-12.5 30.5v228q0 18 12.5 30.5t30.5 12.5h228q18 0 30.5 -12.5t12.5 -30.5v-228q0 -18 -12.5 -30.5t-30.5 -12.5z" />
    <glyph glyph-name="uniE640" unicode="&#xe640;" 
d="M512 -73q-93 0 -177.5 36t-146 97.5t-97.5 146t-36 177.5t36 177.5t97.5 146t146 97.5t177.5 36t177.5 -36t146 -97.5t97.5 -146t36 -177.5t-36 -177.5t-97.5 -146t-146 -97.5t-177.5 -36zM512 755q-101 0 -186.5 -49.5t-135 -135t-49.5 -186.5t49.5 -186.5t135 -135
t186.5 -49.5t186.5 49.5t135 135t49.5 186.5t-49.5 186.5t-135 135t-186.5 49.5zM641 270q0 -18 -13 -30.5t-30.5 -12.5t-30 12.5t-12.5 30.5v228v0q0 18 12.5 30.5t30 12.5t30.5 -12.5t13 -30.5v-1v-226v-1zM469 270q0 -18 -12.5 -30.5t-30 -12.5t-30.5 12.5t-13 30.5v228
q0 18 13 30.5t30.5 12.5t30 -12.5t12.5 -30.5v-1v-226v-1z" />
    <glyph glyph-name="uniE641" unicode="&#xe641;" 
d="M842 -73h-626q-28 0 -48.5 20.5t-20.5 49.5h17q22 0 37 15.5t15 37.5t-15 37.5t-37 15.5h-17v35h17q22 0 37 15.5t15 37t-15 37t-37 15.5h-17v36h17q22 0 37 15t15 37t-15 37.5t-37 15.5h-17v35h17q22 0 37 15.5t15 37.5t-15 37.5t-37 15.5h-17v35h17q22 0 37 15.5t15 37
t-15 37t-37 15.5h-17v106q0 29 20.5 49.5t48.5 20.5h626q40 0 60 -35h-686q-14 0 -24 -10.5t-10 -25t10 -24.5t24 -10h696v-739q0 -29 -20.5 -49.5t-49.5 -20.5zM546.5 610q-31.5 0 -53.5 -29.5t-22 -71.5t22 -71.5t53.5 -29.5t54 29.5t22.5 71.5t-22.5 71.5t-54 29.5z
M668 360q-8 5 -26 10.5t-33 7.5l-14 3q-35 -38 -49 -38q-7 0 -19.5 9.5t-21.5 18.5l-9 10q-54 -9 -73 -21q-8 -6 -15 -26t-9 -37l-3 -17h300l-1 7t-3 17.5t-4.5 21t-8 20.5t-11.5 14zM182 612.5q0 -7.5 -5.5 -12.5t-12.5 -5h-35q-7 0 -12 5t-5 12.5t5 12.5t12 5h35
q7 0 12.5 -5t5.5 -12.5zM129 489h35q7 0 12.5 -5t5.5 -12t-5.5 -12.5t-12.5 -5.5h-35q-7 0 -12 5.5t-5 12.5t5 12t12 5zM129 349h35q7 0 12.5 -5t5.5 -12.5t-5.5 -12.5t-12.5 -5h-35q-7 0 -12 5t-5 12.5t5 12.5t12 5zM129 208h35q7 0 12.5 -5t5.5 -12.5t-5.5 -12.5t-12.5 -5
h-35q-7 0 -12 5t-5 12.5t5 12.5t12 5zM129 68h35q7 0 12.5 -5.5t5.5 -12.5t-5.5 -12.5t-12.5 -5.5h-35q-7 0 -12 5.5t-5 12.5t5 12.5t12 5.5z" />
    <glyph glyph-name="uniE642" unicode="&#xe642;" 
d="M216 736h696v-739q0 -29 -20.5 -49.5t-49.5 -20.5h-626q-28 0 -48.5 20.5t-20.5 49.5h17q22 0 37 15.5t15 37.5t-15 37.5t-37 15.5h-17v35h17q22 0 37 15.5t15 37t-15 37t-37 15.5h-17v36h17q22 0 37 15t15 37t-15 37.5t-37 15.5h-17v35h17q22 0 37 15.5t15 37.5
t-15 37.5t-37 15.5h-17v35h17q22 0 37 15.5t15 37t-15 37t-37 15.5h-17v106q0 29 20.5 49.5t48.5 20.5h626q40 0 60 -35h-686q-14 0 -24 -10.5t-10 -25t10 -24.5t24 -10zM369 322h28q2 -25 19.5 -42.5t41 -17.5t41 17.5t18.5 42.5h57q1 -25 18.5 -42.5t41.5 -17.5
q25 0 42.5 19t17.5 46v7q40 24 40 74v59q0 8 -5 13.5t-12 5.5h-24q-6 47 -40 79t-79 32h-24q-47 0 -81.5 -34t-38.5 -83q-30 -17 -47.5 -47.5t-17.5 -67.5q-16 -4 -16 -21q0 -9 6 -15.5t14 -6.5zM457.5 348q8.5 0 14 -6.5t5.5 -15t-5.5 -15t-14 -6.5t-14.5 6.5t-6 15t6 15
t14.5 6.5zM542 554v-86h-73q0 34 21 58.5t52 27.5zM654 468h-72v86q30 -3 51 -27.5t21 -58.5zM634 348q8 0 14 -6.5t6 -15t-6 -15t-14 -6.5t-14 6.5t-6 15t6 15t14 6.5zM182 612.5q0 -7.5 -5.5 -12.5t-12.5 -5h-35q-7 0 -12 5t-5 12.5t5 12.5t12 5h35q7 0 12.5 -5t5.5 -12.5
zM129 489h35q7 0 12.5 -5t5.5 -12t-5.5 -12.5t-12.5 -5.5h-35q-7 0 -12 5.5t-5 12.5t5 12t12 5zM129 349h35q7 0 12.5 -5t5.5 -12.5t-5.5 -12.5t-12.5 -5h-35q-7 0 -12 5t-5 12.5t5 12.5t12 5zM129 208h35q7 0 12.5 -5t5.5 -12.5t-5.5 -12.5t-12.5 -5h-35q-7 0 -12 5
t-5 12.5t5 12.5t12 5zM129 68h35q7 0 12.5 -5.5t5.5 -12.5t-5.5 -12.5t-12.5 -5.5h-35q-7 0 -12 5.5t-5 12.5t5 12.5t12 5.5z" />
    <glyph glyph-name="uniE643" unicode="&#xe643;" 
d="M195 736h746v-739q0 -29 -22 -49.5t-53 -20.5h-671q-31 0 -52.5 20.5t-21.5 49.5h18q23 0 39.5 15.5t16.5 37.5t-16.5 37.5t-39.5 15.5h-18v35h18q23 0 39.5 15.5t16.5 37t-16.5 37t-39.5 15.5h-18v36h18q23 0 39.5 15t16.5 37t-16.5 37.5t-39.5 15.5h-18v35h18
q23 0 39.5 15.5t16.5 37.5t-16.5 37.5t-39.5 15.5h-18v35h18q23 0 39.5 15.5t16.5 37t-16.5 37t-39.5 15.5h-18v106q0 29 21.5 49.5t52.5 20.5h671q43 0 64 -35h-735q-15 0 -26 -10.5t-11 -25t11 -24.5t26 -10zM561 205l216 104v221l-216 -93v-232zM777 546l-225 96
l-222 -96l222 -97zM328 309l217 -104v232l-217 93v-221zM158 612.5q0 -7.5 -5.5 -12.5t-13.5 -5h-37q-8 0 -13.5 5t-5.5 12.5t5.5 12.5t13.5 5h37q8 0 13.5 -5t5.5 -12.5zM102 490h37q8 0 13.5 -5.5t5.5 -12.5t-5.5 -12.5t-13.5 -5.5h-37q-8 0 -13.5 5.5t-5.5 12.5t5.5 12.5
t13.5 5.5zM102 349h37q8 0 13.5 -5t5.5 -12.5t-5.5 -12.5t-13.5 -5h-37q-8 0 -13.5 5t-5.5 12.5t5.5 12.5t13.5 5zM102 208h37q8 0 13.5 -5t5.5 -12.5t-5.5 -12.5t-13.5 -5h-37q-8 0 -13.5 5t-5.5 12.5t5.5 12.5t13.5 5zM102 68h37q8 0 13.5 -5.5t5.5 -12.5t-5.5 -12.5
t-13.5 -5.5h-37q-8 0 -13.5 5.5t-5.5 12.5t5.5 12.5t13.5 5.5z" />
    <glyph glyph-name="uniE644" unicode="&#xe644;" 
d="M195 736h746v-739q0 -29 -22 -49.5t-53 -20.5h-671q-31 0 -52.5 20.5t-21.5 49.5h18q23 0 39.5 15.5t16.5 37.5t-16.5 37.5t-39.5 15.5h-18v35h18q23 0 39.5 15.5t16.5 37t-16.5 37t-39.5 15.5h-18v36h18q23 0 39.5 15t16.5 37t-16.5 37.5t-39.5 15.5h-18v35h18
q23 0 39.5 15.5t16.5 37.5t-16.5 37.5t-39.5 15.5h-18v35h18q23 0 39.5 15.5t16.5 37t-16.5 37t-39.5 15.5h-18v106q0 29 21.5 49.5t52.5 20.5h671q43 0 64 -35h-735q-15 0 -26 -10.5t-11 -25t11 -24.5t26 -10zM532.5 245q84.5 0 144.5 58t60 140.5t-60 140.5t-144.5 58
t-144.5 -58t-60 -140.5t60 -140.5t144.5 -58zM451 426q23 22 53 14l-33 -32v-1l-39 -37q-8 -8 -8 -19t8 -19t19.5 -8t19.5 8l38 38h1v1l33 31q8 -29 -14 -51l-39 -38q-16 -16 -38.5 -16t-38.5 16t-16 38t16 38zM499 378q-4 -4 -9.5 -4t-10 4t-4.5 9q0 6 5 10l92 90q4 4 10 4
t10 -4t4 -9.5t-4 -9.5zM600 458l39 38q8 8 8 19t-8 18.5t-19.5 7.5t-19.5 -7l-38 -38l-34 -33q-8 30 14 52l39 37q16 16 38.5 16t38.5 -15.5t16 -37.5t-16 -38l-38 -38q-23 -22 -53 -13l32 31zM158 612.5q0 -7.5 -5.5 -12.5t-13.5 -5h-37q-8 0 -13.5 5t-5.5 12.5t5.5 12.5
t13.5 5h37q8 0 13.5 -5t5.5 -12.5zM102 490h37q8 0 13.5 -5.5t5.5 -12.5t-5.5 -12.5t-13.5 -5.5h-37q-8 0 -13.5 5.5t-5.5 12.5t5.5 12.5t13.5 5.5zM102 349h37q8 0 13.5 -5t5.5 -12.5t-5.5 -12.5t-13.5 -5h-37q-8 0 -13.5 5t-5.5 12.5t5.5 12.5t13.5 5zM102 208h37
q8 0 13.5 -5t5.5 -12.5t-5.5 -12.5t-13.5 -5h-37q-8 0 -13.5 5t-5.5 12.5t5.5 12.5t13.5 5zM102 68h37q8 0 13.5 -5.5t5.5 -12.5t-5.5 -12.5t-13.5 -5.5h-37q-8 0 -13.5 5.5t-5.5 12.5t5.5 12.5t13.5 5.5z" />
    <glyph glyph-name="uniE645" unicode="&#xe645;" 
d="M905 588l86 -12l-77 -41l56 -51l-81 10l50 -103l-100 75l-82 -100l38 124l-120 -65l84 92l-6 22q-47 -23 -89 -21q-63 0 -166 87q-3 3 -8.5 8t-22 19t-32.5 24.5t-37 19t-39 8.5t-30.5 -10t-17.5 -24.5t-8 -29t-2 -24.5t0 -11h74v-66q70 -27 113 -90.5t43 -142.5
q0 -103 -73 -176.5t-176.5 -73.5t-176.5 73.5t-73 176.5q0 79 43.5 142t114.5 91v66h66q1 5 -0.5 21t6.5 44.5t24 46.5q31 32 74 32q25 0 51 -9.5t46 -23t36 -27t25 -23.5l8 -9q87 -75 141 -75q17 0 61 15l-48 37l83 -6l-64 98l104 -74l11 69l20 -63l76 92l-17 -102l88 21z
" />
    <glyph glyph-name="uniE646" unicode="&#xe646;" horiz-adv-x="1025" 
d="M948 82h-611l-122 -121q-13 -13 -32 -13v0v0q-19 0 -32 13v0q-3 3 -5 6q0 1 -0.5 2t-1.5 1q-2 4 -2 5v1q-1 1 -1 2q-1 4 -2 5q-1 5 -1 10v89h-60q-18 0 -31.5 13.5t-13.5 31.5v645q0 18 13.5 31.5t31.5 13.5h870q18 0 31.5 -13.5t13.5 -31.5v-645q0 -18 -13.5 -31.5
t-31.5 -13.5zM288 532q-37 0 -63.5 -26.5t-26.5 -63.5t26.5 -63.5t63.5 -26.5t63.5 26.5t26.5 63.5t-26.5 63.5t-63.5 26.5zM513 532q-37 0 -63.5 -26.5t-26.5 -63.5t26.5 -63.5t63.5 -26.5t63.5 26.5t26.5 63.5t-26.5 63.5t-63.5 26.5zM738 532q-37 0 -63.5 -26.5
t-26.5 -63.5t26.5 -63.5t63.5 -26.5t63.5 26.5t26.5 63.5t-26.5 63.5t-63.5 26.5z" />
    <glyph glyph-name="uniE647" unicode="&#xe647;" horiz-adv-x="1026" 
d="M884 448q-5 -3 -7.5 -11.5t0.5 -22t10 -28t24.5 -30t42.5 -26.5q-5 -1 -14 -1.5t-34.5 1t-49 8.5t-53 25t-51.5 46q-6 -1 -18 -3.5t-22 -4t-19 -1.5q-123 0 -196.5 62.5t-73.5 155.5t73.5 156t196.5 63q125 0 212.5 -64t87.5 -155q0 -51 -28.5 -95t-80.5 -75zM366 596
q6 -103 89.5 -175.5t216.5 -81.5q10 0 60 7v1l5 1q61 -62 156 -65q-30 -113 -136.5 -183t-265.5 -70q-14 0 -29.5 2t-33.5 6t-28 5q-34 -42 -78 -70t-82.5 -38t-72.5 -13.5t-54 -1.5l-21 2q38 18 64.5 41.5t38 45.5t15.5 42t0 33.5t-11 18.5q-79 46 -123 113.5t-44 145.5
q0 117 98.5 207t251.5 117q-18 -44 -16 -90z" />
    <glyph glyph-name="uniE648" unicode="&#xe648;" 
d="M962 634l-450 -500l-450 500h900z" />
    <glyph glyph-name="uniE649" unicode="&#xe649;" 
d="M256 834l501 -450l-501 -450v900z" />
    <glyph glyph-name="uniE64A" unicode="&#xe64a;" horiz-adv-x="1025" 
d="M290 792h81l11 -4q7 -2 10 -5q6 -5 18 -19.5t35 -24.5q17 -7 48 -12q3 -1 9 -1h8q9 -2 25 1q47 10 73 30q4 3 10.5 12t11.5 12q3 2 8 5l7 3q2 1 5.5 1.5t5.5 1.5h24q5 0 18.5 0.5t21.5 0.5t17.5 -1.5t15.5 -4.5q8 -4 27 -22q23 -22 35 -33q13 -12 52.5 -50t60.5 -58
q6 -6 19 -17.5t19 -18.5l7 -7l7 -7q3 -3 6 -8t5 -10v-7q4 -18 -12 -36q-79 -75 -95 -90q0 -1 -4 -5l-4 -4q-1 -1 -4 -4.5t-5 -5t-5 -4t-5.5 -4t-5.5 -3t-6.5 -2.5t-6.5 -2q-13 -2 -25 2.5t-16.5 8.5t-14.5 13q-12 12 -13 12h-1v-321q-1 -46 -1 -91q-3 -17 -17 -27
q-5 -4 -12 -6.5t-17.5 -3t-16 -1t-20.5 -0.5h-20h-192h-130q-51 0 -62 8q-15 9 -20 22q-3 8 -3 39v60v321h-1q-4 -3 -12.5 -11.5t-16 -14t-15.5 -8.5q-21 -9 -45 7q-2 2 -18 16q-28 27 -43 41l-20 20q-3 2 -23 22q-2 1 -7 5.5t-7.5 7t-5.5 6.5t-5 9q-7 15 -6 24q4 20 31 44
q5 3 13 11l11 11q132 126 134 127q16 16 24 23q1 2 5.5 6t6.5 6t6.5 5t7.5 4.5t8.5 3t10.5 1.5v1z" />
    <glyph glyph-name="uniE64B" unicode="&#xe64b;" 
d="M287 384l450 -450v209l-241 241l241 241v209z" />
    <glyph glyph-name="uniE64C" unicode="&#xe64c;" 
d="M737 384l-450 450v-209l241 -241l-241 -241v-209z" />
    <glyph glyph-name="uniE64D" unicode="&#xe64d;" 
d="M768 -66l-501 450l501 450v-900z" />
    <glyph glyph-name="uniE64E" unicode="&#xe64e;" 
d="M62 134l450 500l450 -500h-900z" />
    <glyph glyph-name="uniE64F" unicode="&#xe64f;" 
d="M272 564q0 -99 70.5 -169.5t169.5 -70.5t169.5 70.5t70.5 169.5t-70.5 169.5t-169.5 70.5t-169.5 -70.5t-70.5 -169.5zM752 264h-480q-99 0 -169.5 -70t-70.5 -170v-60h960v60q0 100 -70.5 170t-169.5 70z" />
    <glyph glyph-name="uniE650" unicode="&#xe650;" 
d="M512 -73q-93 0 -177.5 36t-146 97.5t-97.5 146t-36 177.5t36 177.5t97.5 146t146 97.5t177.5 36t177.5 -36t146 -97.5t97.5 -146t36 -177.5t-36 -177.5t-97.5 -146t-146 -97.5t-177.5 -36zM512 755q-101 0 -186.5 -49.5t-135 -135t-49.5 -186.5t49.5 -186.5t135 -135
t186.5 -49.5t186.5 49.5t135 135t49.5 186.5t-49.5 186.5t-135 135t-186.5 49.5zM648 347l-227 -142q-3 -2 -6 -3t-5 -2q-2 0 -3 -1h-3q-2 0 -3 -1h-1h-2q-18 0 -30.5 12.5t-12.5 30.5v0v286q0 18 12.5 30.5t30.5 12.5q13 0 24 -8l226 -141q21 -12 21 -37q0 -24 -21 -37z
" />
    <glyph glyph-name="uniE651" unicode="&#xe651;" horiz-adv-x="1026" 
d="M880 198h-53v201q-10 -8 -24 -8h-9q-32 0 -48 54q-11 3 -20 8q-27 -17 -48 -17q-15 0 -26 10l-9 7q-23 22 7 72q-5 9 -8 19q-14 4 -25 9q-33 15 -33 38v9q0 25 32 38q11 5 26 8q3 10 8 19q-31 50 -8 71v1l10 7q0 1 1 2q-43 22 -91 30v2q1 1 1 2q0 22 -15.5 37.5
t-37.5 15.5t-37.5 -15.5t-15.5 -37.5q0 -1 1 -2v-2q-114 -19 -190 -107.5t-76 -205.5v-265h-52q-22 0 -37.5 -15.5t-15.5 -37t15.5 -37t37.5 -15.5h740q22 0 37.5 15.5t15.5 37t-15.5 37t-37.5 15.5zM510 -66q44 0 75 31t31 75h-212q0 -44 31 -75t75 -31zM919 628
q-4 14 -12 27q27 35 12 49l-8 8q-13 12 -52 -12q-13 8 -29 12q-7 42 -29 42h-8q-19 0 -30 -42q-15 -4 -29 -12q-36 26 -52 11l-7 -6q-14 -13 12 -51q-8 -13 -12 -27q-45 -6 -45 -28v-7q0 -18 46 -29q4 -14 11 -27q-25 -38 -12 -50l8 -6q9 -7 20.5 -4.5t21.5 8.5l10 6l-2 2
q14 -8 30 -12q11 -43 30 -43h8q11 0 18.5 10.5t9.5 20.5l2 11h-2q15 4 30 11q38 -24 51 -11l8 8q5 4 5.5 11t-1.5 12.5t-6 12t-6 9t-3 4.5q8 13 12 27q8 2 16 5t18 9.5t10 14.5v7q0 10 -11.5 17t-19 9t-13.5 3zM797 506q-39 0 -66.5 26t-27.5 63t27.5 63t66.5 26t66 -26
t27 -63t-27 -63t-66 -26zM797 655q-26 0 -44.5 -17.5t-18.5 -42t18.5 -42t44.5 -17.5t44 17.5t18 42t-18 42t-44 17.5zM797 565q-13 0 -22 9t-9 21t9 21t22 9t22 -9t9 -21t-9 -21t-22 -9z" />
    <glyph glyph-name="uniE652" unicode="&#xe652;" 
d="M817 124v668h-486v-2l-38 -41l-53 -3l61 68l23 27h538v-672zM505 410h1l88 95l88 -95h1v335h89v-669h-306q-3 10 -3 36t0.5 46t1.5 22q1 4 1 20t-1 19q-5 8 -14.5 12.5t-16.5 5.5l-7 1v156q0 5 -8.5 30t-10.5 28q1 0 -0.5 2.5t-4.5 5.5l-7 6q-3 4 -7.5 8t-8 7.5t-6.5 6
t-4 3.5q-16 15 -94 19h-38l1 235h266v-335zM392 369v-15q-3 5 -8 5q-9 0 -9 -9.5t9 -9.5q5 0 8 5v-29q-3 5 -8 5q-9 0 -9 -9.5t9 -9.5q5 0 8 5v-29q-3 5 -8 5q-9 0 -9 -9t9 -9q5 0 8 5v-29q-3 5 -8 5q-9 0 -9 -9.5t9 -9.5q5 0 8 5v-24h-195v161q0 42 28.5 72.5t68.5 30.5
t69 -30.5t29 -72.5zM313.5 434q-8.5 0 -8.5 -9.5t8.5 -9.5t8.5 9.5t-8.5 9.5zM349 434q-9 0 -9 -9.5t9 -9.5t9 9.5t-9 9.5zM366.5 377q8.5 0 8.5 9.5t-8.5 9.5t-8.5 -9.5t8.5 -9.5zM349 227q9 0 9 9.5t-9 9.5t-9 -9.5t9 -9.5zM349 265q9 0 9 9t-9 9t-9 -9t9 -9zM349 302
q9 0 9 9.5t-9 9.5t-9 -9.5t9 -9.5zM349 340q9 0 9 9.5t-9 9.5t-9 -9.5t9 -9.5zM331 377q9 0 9 9.5t-9 9.5t-9 -9.5t9 -9.5zM313.5 227q8.5 0 8.5 9.5t-8.5 9.5t-8.5 -9.5t8.5 -9.5zM313.5 265q8.5 0 8.5 9t-8.5 9t-8.5 -9t8.5 -9zM313.5 302q8.5 0 8.5 9.5t-8.5 9.5
t-8.5 -9.5t8.5 -9.5zM313.5 340q8.5 0 8.5 9.5t-8.5 9.5t-8.5 -9.5t8.5 -9.5zM278 227q9 0 9 9.5t-9 9.5t-9 -9.5t9 -9.5zM278 265q9 0 9 9t-9 9t-9 -9t9 -9zM278 302q9 0 9 9.5t-9 9.5t-9 -9.5t9 -9.5zM278 340q9 0 9 9.5t-9 9.5t-9 -9.5t9 -9.5zM243 227q9 0 9 9.5t-9 9.5
t-9 -9.5t9 -9.5zM243 265q9 0 9 9t-9 9t-9 -9t9 -9zM243 302q9 0 9 9.5t-9 9.5t-9 -9.5t9 -9.5zM243 359q-9 0 -9 -9.5t9 -9.5t9 9.5t-9 9.5zM260.5 396q-8.5 0 -8.5 -9.5t8.5 -9.5t8.5 9.5t-8.5 9.5zM278 434q-9 0 -9 -9.5t9 -9.5t9 9.5t-9 9.5zM287 386.5q0 -9.5 9 -9.5
t9 9.5t-9 9.5t-9 -9.5zM294 59q-40 0 -68.5 30.5t-28.5 72.5v27h195v-27q0 -42 -29 -72.5t-69 -30.5zM294 39q47 0 81 36t34 86v28h18v-28q0 -53 -33.5 -92.5t-82.5 -46.5v-56q25 -1 47 -7t34 -14.5t12 -17.5h-108h-108q0 13 25.5 24.5t61.5 14.5v57q-48 7 -80.5 46
t-32.5 92v28h18v-28q0 -50 33.5 -86t80.5 -36z" />
    <glyph glyph-name="uniE653" unicode="&#xe653;" 
d="M878 86h-22q-6 -18 -16 -35l21 -20q10 -9 10 -22.5t-10 -22.5l-12 -12q-10 -9 -24 -9t-24 9l-21 20q-17 -9 -37 -14v-21q0 -13 -9.5 -22.5t-23.5 -9.5h-17q-14 0 -24 9.5t-10 22.5v21q-20 5 -37 14l-21 -20q-10 -9 -24 -9t-24 9l-12 12q-10 9 -10 22.5t10 22.5l21 20
q-10 17 -16 35h-22q-14 0 -24 9.5t-10 23.5v16q0 13 10 22.5t24 9.5h22q5 18 15 35l-20 19q-10 9 -10 22.5t10 23.5l12 11q10 9 24 9t24 -9l19 -19q19 11 39 16v21q0 14 10 23.5t24 9.5h17q14 0 23.5 -9.5t9.5 -23.5v-21q20 -5 39 -16l19 19q10 9 24 9t24 -9l12 -11
q10 -10 10 -23.5t-10 -22.5l-20 -19q10 -16 15 -35h22q14 0 24 -9.5t10 -22.5v-16q0 -14 -10 -23.5t-24 -9.5zM701.5 215q-38.5 0 -66 -26t-27.5 -62.5t27.5 -62.5t66 -26t65.5 26t27 62.5t-27 62.5t-65.5 26zM701.5 87q-17.5 0 -30 12t-12.5 28.5t12.5 28t30 11.5
t29.5 -11.5t12 -28t-12 -28.5t-29.5 -12zM290 169h-36v34h36v-34zM290 270h-36v34h36v-34zM290 371h-36v34h36v-34zM254 606h36v-33h-36v33zM290 472h-36v33h36v-33zM325 169v34h135q-6 -15 -9 -34h-126zM497 270h-172v34h204q-17 -15 -32 -34zM610 371h-285v34h285v-34z
M325 606h285v-33h-285v33zM610 472h-285v33h285v-33zM681 369v306h-142v99h-356v-670h265q3 -35 18 -69h-354v806h496l144 -134v-340q-24 3 -44 3q-13 0 -27 -1z" />
    <glyph glyph-name="uniE654" unicode="&#xe654;" 
d="M124 834h284h284h152h42q15 0 16 -1q0 -6 -2 -17v-7q-1 -3 -1.5 -10.5t-0.5 -10.5t-0.5 -7.5t-0.5 -7.5q0 -1 -1 -6v-3v-2q-1 -6 -2 -19.5t-2 -19.5v-5q0 -3 -0.5 -4.5t-0.5 -5t-1 -5.5v-6q-1 -4 -1.5 -13t-0.5 -12q-1 -3 -1 -8q0 -4 -1 -12.5t-1 -12.5q-1 -1 -1 -5v-7
v-2q-1 -2 -1 -7t-1 -7v-3q0 -2 -0.5 -6.5t-0.5 -6.5v-3v-3q-1 -3 -1 -7t-1 -6v-7q-1 -6 -2 -19t-2 -19v-1v-1v-5v-4q-1 -5 -2 -18t-2 -19v-4v-4q0 -2 -0.5 -3t-0.5 -3v-2v-3q-1 -2 -1 -7t-1 -7v-2q0 -2 -0.5 -6.5t-0.5 -6.5q-1 -7 -1 -11q0 -3 -0.5 -10.5t-1.5 -10.5v-3v-4
q0 -3 -1 -4q0 -4 -1 -12.5t-1 -12.5q-1 -2 -0.5 -5.5t-0.5 -5.5q-1 -5 -1.5 -17t-1.5 -17q0 -5 -1 -14q0 -1 -1 -4v-2v-7q-1 -5 -2 -18t-2 -19v-2q0 -2 -0.5 -7t-0.5 -7v-6q0 -3 -1 -4q0 -5 -1 -13.5t-1 -12.5v-6q-1 -6 -2 -19.5t-2 -19.5q0 -6 -1 -9q0 -4 -1 -6v-4v-3
q0 -2 -0.5 -6.5t-0.5 -6.5q0 -4 -1 -7q0 -1 -0.5 -4t-0.5 -5v-5v-2q0 -3 -1 -10.5t-1 -11.5q0 -5 -1 -10t-1.5 -15t-1.5 -14v-3v-4q0 -3 -1 -5v-4v-2q-2 -1 -10 -3h-1t-2 -1q-11 -3 -12 -3l-24 -7q-18 -5 -27 -8h-3q-2 -1 -10 -3t-12 -4h-3q-16 -5 -46.5 -13.5t-37.5 -10.5
l-6 -1l-9 -3q-2 -1 -3 -1q-10 -3 -17 -5q-2 -1 -4.5 -1.5t-4.5 -0.5q-9 -3 -27.5 -8t-27.5 -8q-1 0 -7.5 -2t-9.5 -3h-3q-10 -4 -11.5 -4t-6.5 2h-4q-1 1 -3.5 1.5t-5 1.5t-3.5 1q-6 2 -11.5 3.5t-13 3.5t-10.5 3t-12 3.5t-14 3.5q-1 1 -3.5 1.5t-4.5 0.5q-7 2 -22 7
q-1 0 -4 0.5t-4 1.5q-5 1 -14 3.5t-11 3.5q-11 3 -59 17q-5 1 -14 3.5t-16.5 4.5t-14.5 4q-2 1 -3 1t-3.5 1t-3.5 1q-1 1 -2 1h-2q-9 3 -37 11q-1 0 -3.5 0.5t-4.5 1.5l-1 1h-2q-6 2 -7 2v2v2q-1 4 -1.5 11.5t-0.5 10.5t-1 10q0 3 -1 10.5t-1 10.5v3v3q-1 3 -1.5 12.5
t-1.5 14.5v2v3q-1 9 -1 11v6q-1 2 -1 5t-1 5v3v3q0 2 -0.5 5t-0.5 5v7q-1 5 -2 8v8q0 3 -1 12t-1 13v3v4q-2 6 -3 20.5t-2 21.5v6q0 1 -0.5 4.5t-0.5 5.5v9q-1 2 -1 6q-1 5 -1 7t-0.5 5t-0.5 4v8q-1 4 -1 8v4v3q-1 7 -2 10v6q0 4 -1 12.5t-1 12.5q0 3 -1 7q0 4 -0.5 12.5
t-1.5 12.5q-1 2 -1 6v4v3q0 2 -0.5 3.5t-0.5 3.5v3q0 4 -1 10v3v3q-1 2 -1 5v5q-1 2 -1 5v5q0 2 -0.5 7t-0.5 7v3q-2 6 -2.5 18.5t-1.5 18.5v7q-1 1 -1 4t-1 5v3v4q0 3 -1 9v7q-1 3 -1.5 9.5t-0.5 8.5v2t-0.5 6.5t-0.5 6.5v3q-1 6 -2 18.5t-2 18.5v3v4q0 3 -1 9q0 2 -1 7
q-1 7 -2 21t-2 21v6q0 4 -1 6v7q0 5 -1 7q0 3 -0.5 10.5t-1.5 11.5v10q-1 3 -1 8.5t-1 7.5q0 2 -1 6v4v3v2t-1 7v4v3q0 1 -0.5 3t-0.5 3q0 2 -0.5 6.5t-0.5 6.5q-1 6 -1 7v4q0 3 -0.5 5.5t-0.5 3.5h1h1zM269 669q-1 0 -2 -1q0 -1 1 -8v-6v-2v-2q0 -1 1 -2v-6q0 -5 1 -8
q1 -6 2 -19t2 -19v-6v-4q0 -1 0.5 -3t0.5 -3v-5v-5q1 -4 1 -6q1 -2 1 -4v-3v-3q0 -1 0.5 -3t0.5 -3v-10q0 -1 0.5 -3t0.5 -4v-10q1 0 1.5 -2.5t0.5 -3.5v-9q0 -1 0.5 -3t0.5 -3v-10q1 -5 1 -6q0 -3 1 -10q0 -1 0.5 -3t0.5 -3v-5v-5q0 -2 1 -6v-6q0 -1 0.5 -5t1 -5.5
t0.5 -5.5v-5q0 -1 0.5 -2.5t0.5 -2.5v-10q0 -1 0.5 -3.5t1.5 -2.5v-6v-5l1 -6v-7v-4q1 -3 1 -4t1 -2v-2q1 -1 9 -1h18h52h138q2 1 12 1h18h66h17q7 0 8 -1v-4q-1 -4 -1 -5q0 -5 -1 -11q0 -2 -0.5 -6t-0.5 -6v-7q0 -5 -1 -7q-1 -6 -1.5 -19t-2.5 -19v-2v-7q0 -4 -1 -6v-7
q0 -2 -0.5 -6.5t-1.5 -6.5v-4v-4q-1 -1 -3 -1.5t-4.5 -1t-3.5 -0.5q-6 -3 -18.5 -6t-17.5 -5q-6 -1 -17.5 -4.5t-16.5 -4.5q-1 -1 -4 -1.5t-4 -0.5q-5 -2 -15 -4q-1 0 -2.5 -0.5t-2.5 -1t-2 0.5t-2 1h-3l-1 1h-1h-2l-3 1q-2 1 -3 1h-1l-1 1h-3q-1 0 -2 1q-1 0 -2 0.5t-2 0.5
q-1 1 -2 1h-2q-1 0 -1.5 0.5t-1.5 0.5q-2 0 -3 1q-5 1 -14.5 3.5t-13.5 4.5h-3l-3 1q-2 1 -3 1h-1q0 1 -1 1h-3l-1 1h-1h-3q0 1 -2 2h-2h-1q-1 0 -2 1h-4v1h-1q-1 1 -3 1q-2 1 -3 1l-6 2v3v3q0 2 -0.5 5t-0.5 5v6q-1 6 -2 20.5t-3 21.5v4v3q0 1 -0.5 5t-0.5 6h-6h-16h-55
h-15h-6q-1 -3 1 -14v-4v-4v-3q0 -1 0.5 -3t0.5 -3v-6q1 -2 1 -5t1 -4v-6v-5q0 -1 0.5 -3t0.5 -3v-10q1 -6 2 -19t2 -19v-6q1 -1 1 -4.5t1 -5.5v-3v-4q0 -4 1 -5v-1v-1v-3v-2v-5q0 -3 0.5 -5.5t1.5 -3.5q0 -1 8 -2q1 -1 2 -1t1 -1h3h1l1 -1h3q1 -1 2 -1h2l1 -1q2 -1 3 -1h2h1
q1 -1 2 -1t2 -1h2v-1h3l1 -1h2h1q1 0 1.5 -0.5t1.5 -0.5t1 -1h3l1 -1h3q1 0 2 -1q1 0 2 -0.5t2 -0.5l1 -1h4h1l1 -1q2 0 3 -1l2 -1h3q1 0 2 -1h3q0 -1 1 -1.5t2 -0.5h1h1h1l1 -1h1h2l1 -0.5t1.5 -0.5h1.5l1 -1q1 0 2 -1h2h1h2v-1q3 0 4 -1l2 -1h1h2q1 -1 2 -1h3
q3 -2 10.5 -4t11.5 -3h3q0 -1 1 -1t1 -1h3l2 -1q1 0 4 -1q1 0 1 -1h4l1 -1h2h2q0 -1 1 -1q2 -1 4 -1q1 0 2 -1h1h1q2 -1 3 -1t3 -1q1 0 2 -1h1h2l2 -1h2h1h1v-1q2 -1 3 -1t2 -1h1h3l2 -2q1 0 2.5 0.5t3.5 1.5t3 1q7 2 24 7q5 1 12.5 3t11.5 3q49 14 68 20q5 1 25 6.5t31 8.5
q0 1 2 1q3 1 7.5 2t5.5 2l5 1q1 1 1 3v5v3q1 4 1.5 12.5t1.5 12.5v7q1 3 1.5 10.5t0.5 10.5q0 2 0.5 5.5t0.5 5.5q0 1 0.5 2.5t0.5 4.5v3v6q1 6 2 18.5t2 18.5v4v3q0 2 0.5 5t0.5 4v3q1 2 1 6.5t1 6.5v5v5q1 6 2 19t2 19v10q1 3 1.5 11t1.5 12v10q1 2 1 6v6q1 4 1 6l1 4v6
q0 5 1 10v7q2 8 1 9t-9 1h-17h-56h-92h-91h-66h-17h-8v7q-1 3 -1 5v6v5q-1 4 -1 5q-1 5 -1 11q-1 3 -1 6v3v4v3q-1 3 -1.5 10.5t-1.5 10.5v10q-1 7 -1 8v7h7h18h70h96h97h58h18h9v3q0 1 1 1q0 3 0.5 7.5t0.5 6.5v3q0 2 0.5 6.5t0.5 6.5v3q2 6 2.5 18.5t1.5 18.5v6
q0 2 0.5 6.5t1.5 6.5q1 6 -1 6h-66h-66q-59 0 -177.5 0.5t-177.5 0.5z" />
    <glyph glyph-name="uniE655" unicode="&#xe655;" 
d="M65 635l446 -198l450 198l-451 199zM962 603v-455l-433 -214v478zM62 603v-455l435 -214v478z" />
    <glyph glyph-name="uniE656" unicode="&#xe656;" horiz-adv-x="1025" 
d="M928 453h-42q-14 0 -27.5 10t-17.5 23l-24 58q-7 13 -4.5 29t12.5 26l30 30q10 10 10 24.5t-10 24.5l-49 49q-10 10 -24.5 10t-24.5 -10l-30 -30q-10 -10 -26 -12.5t-29 4.5l-58 24q-13 4 -23 17.5t-10 27.5v41q0 15 -10 25t-24 10h-69q-15 0 -25 -10t-10 -25v-41
q0 -14 -10 -27.5t-23 -17.5l-58 -24q-13 -7 -29 -4.5t-26 12.5l-30 30q-10 10 -24.5 10t-24.5 -10l-49 -49q-10 -10 -10 -24.5t10 -24.5l30 -30q10 -10 12.5 -26t-4.5 -29l-24 -58q-4 -13 -17.5 -23t-27.5 -10h-41q-15 0 -25 -10t-10 -24v-70q0 -14 10 -24t25 -10h41
q14 0 27.5 -10t17.5 -23l24 -58q7 -13 4.5 -29t-12.5 -26l-30 -30q-10 -10 -10 -24.5t10 -24.5l49 -49q10 -10 24.5 -10t24.5 10l30 30q10 10 26 12.5t29 -4.5l58 -24q13 -4 23 -17.5t10 -27.5v-41q0 -15 10 -25t25 -10h69q14 0 24 10t10 25v41q0 14 10 27.5t23 17.5l58 24
q13 7 29 4.5t26 -12.5l30 -30q10 -10 24.5 -10t24.5 10l49 49q10 10 10 24.5t-10 24.5l-30 30q-10 10 -12.5 26t4.5 29l24 58q4 13 17.5 23t27.5 10h41q15 0 25 10t10 24v70q0 14 -10 24t-24 10zM685 384q0 -72 -50.5 -122.5t-122.5 -50.5t-122.5 50.5t-50.5 122.5
t50.5 122.5t122.5 50.5t122.5 -50.5t50.5 -122.5z" />
    <glyph glyph-name="uniE657" unicode="&#xe657;" 
d="M177 501l-60 -172l334 -181l59 181zM574 150l-56 179l335 172l67 -170zM177 502l-115 144l340 188l109 -149zM516 685l114 149l332 -191l-109 -141zM157 284l301 -164l50 142v-328l-352 176zM871 283l-304 -163l-47 141v-327l351 176v173z" />
    <glyph glyph-name="uniE658" unicode="&#xe658;" 
d="M962 609h-209l-241 -241l-241 241h-209l450 -450z" />
    <glyph glyph-name="uniE659" unicode="&#xe659;" 
d="M512 609l-450 -450h209l241 241l241 -241h209z" />
    <glyph glyph-name="uniE65A" unicode="&#xe65a;" 
d="M559 110h24l-11 -22zM958 290q-47 -10 -125 -81t-145.5 -155t-102.5 -145q-70 83 -147 144t-136 81l183 108l7 -14h150v-12q-7 -12 -16 -27h-112l-3 4l63 -118q3 7 9 19.5t25.5 50t40.5 73.5t55 83.5t69 87t81 77.5t93 61q-2 -17 -6.5 -57t-5.5 -61.5t4 -55t19 -63.5z
M313 583h329v-39h-329v39zM642 307h-197l-5 9l-16 -9h-111v40h329v-40zM313 465h329v-39h-329v39zM272 71h-41v39h41v-39zM272 225l-41 -22v25h41v-3zM272 307h-41v40h41v-40zM231 583h41v-39h-41v39zM272 426h-41v39h41v-39zM351 71h-38v25q19 -12 38 -25zM724 665h-164
v116h-411v-787h301q44 -37 88 -81h-472v946h573l167 -157v-255q-42 -50 -82 -105v323zM724 -6v44q40 46 82 91v-216h-181q27 39 62 81h37v0z" />
    <glyph glyph-name="uniE65B" unicode="&#xe65b;" 
d="M779 187q-9 -8 -30 -15t-38 -10l-17 -3l-52 52q10 67 28 85l133 134l109 -109l-28 -29l-64 -64q-36 -35 -41 -41zM304 79h-39v38h39v-38zM304 194h-39v38h39v-38zM304 308h-39v38h39v-38zM265 574h39v-38h-39v38zM304 422h-39v38h39v-38zM726 653h-154v112h-383v-760h221
v-78h-298v914h534l156 -152v-216q-29 -30 -76 -77v257zM342 79v38h100l-12 -38h-88zM342 232l225 -5l-61 -33h-164v38zM649 308h-307v38h307v-38zM342 574h307v-38h-307v38zM649 422h-307v38h307v-38zM426 -44l63 191l122 65l83 -81l-68 -123l-187 -65l83 83q11 -5 28 -3.5
t25 10.5q12 11 12 28.5t-12 29.5t-29 12t-29 -12q-8 -8 -10 -24.5t3 -26.5zM662 9l-8 -4h-1zM726 5v117l14 10q14 11 32.5 24.5t29.5 18.5v-248h-299l151 78h72z" />
    <glyph glyph-name="uniE65C" unicode="&#xe65c;" 
d="M929 334l-288 -290q-4 -3 -10.5 -7.5t-26 -13.5t-39.5 -11t-47.5 7.5t-52 34.5t-34.5 52t-7 48.5t10 39t15 26.5l7 10l210 211q1 0 2 1.5t5 4.5t7.5 4t8.5 0t9 -5q7 -8 6 -15.5t-6 -12.5l-5 -5l-183 -183q-3 -4 -8.5 -9.5t-17.5 -22.5t-17 -34t0 -40t25 -43t42.5 -25.5
t40.5 1t33.5 15.5t23.5 18l8 9l241 242l5 5q4 4 11 15.5t10 22.5t-1 26t-17 28.5t-28 17.5t-26.5 0t-21.5 -9.5t-15 -10.5l-6 -6l-177 -178q-2 -2 -5.5 -4.5t-10 -11t-10.5 -16t-3 -18t9 -18.5q15 -14 30 -8t26 16t11 12l127 127q1 1 2 2.5t4.5 4t7.5 4t9 0.5t9 -6
q7 -9 6 -16t-6 -12l-5 -5l-140 -140q-2 -3 -5.5 -7t-15.5 -12t-24 -11t-29.5 2t-33.5 21t-21.5 33.5t-1.5 30.5t10.5 23.5t12.5 16.5l6 6l211 212q3 3 7.5 6.5t19.5 9.5t30 7.5t36 -6.5t40 -27.5t27.5 -40.5t6.5 -37t-7 -29t-11 -20zM263 79h-38v38h38v-38zM263 194h-38v38
h38v-38zM263 308h-38v38h38v-38zM225 574h38v-38h-38v38zM263 422h-38v38h38v-38zM301 79v38h46q-2 -21 -1 -38h-45zM301 194v38h84q-11 -21 -18 -38h-66zM301 308v38h165q-18 -20 -32 -38h-133zM301 574h305v-38h-305v38zM543 422h-242v38h289l-2 -1l-2 -2q-19 -15 -43 -35
zM682 653h-152v112h-381v-760h232q43 -40 121 -39.5t172 39.5h8v4q38 16 76 38v-120h-686v914h531l155 -152v-131q-38 -16 -76 -38v133z" />
    <glyph glyph-name="uniE65D" unicode="&#xe65d;" 
d="M322 422h38v38h-38v-38zM322 308h38v38h-38v-38zM322 79h38v38h-38v-38zM322 194h38v38h-38v-38zM322 536h38v38h-38v-38zM398 422h304v38h-304v-38zM398 308h304v38h-304v-38zM700 841h-531v-914h686v762zM779 5h-534v760h381v-112h153v-648zM398 536h304v38h-304v-38z
M398 194h304v38h-304v-38zM398 79h304v38h-304v-38z" />
    <glyph glyph-name="uniE65E" unicode="&#xe65e;" 
d="M281 254q35 -20 103 -33q35 -7 53 -3q8 3 49 19v1q-8 10 -20 14q-2 0 -12.5 -4t-13.5 -4h-1v14v14q-4 2 -8 5t-9 6.5t-8 5.5q-1 -3 0 -44q-12 -5 -45 17q-26 19 -43.5 46.5t-33.5 69.5v2q4 1 11.5 3t10.5 3q37 10 65 11q4 0 11.5 1t11.5 1.5t11 -1.5v-35q1 -2 2 -2
q4 3 12 8.5t10 7.5t2 11v11q15 -1 28 -1q16 12 29 21q-5 3 -27.5 3.5t-28.5 2.5h-1v76v1h141q2 -5 -1 -26q-11 -62 -12 -70q-4 -1 -24.5 4.5t-24.5 5.5h-1v-1v-1q41 -25 72 -44q6 -3 29 -12q6 -4 22 -13q1 -2 0 -5q11 -11 22 -12q6 6 23 32q27 42 41.5 99t4.5 114
q-8 39 -19 68q-33 83 -111.5 138.5t-182.5 53.5q-5 0 -15.5 -0.5t-15.5 -1.5q-43 -7 -62 -14q-67 -24 -120.5 -78t-72.5 -121q-6 -21 -12 -53q-10 -59 9 -120q22 -69 57 -112t95 -79zM702 464q-18 -60 -45 -100q-6 0 -18 8l-12 9q-4 2 -11 5t-10 4q-1 1 -5 2t-6.5 2t-3.5 4
l6 28q9 38 9 76h1l1 1h50q33 0 49 -1q1 0 -1.5 -17.5t-3.5 -20.5zM655 687h2q4 -3 7 -7.5t7 -13t5 -9.5q30 -56 33 -128q-3 -1 -30 -1h-71l-1 1q0 4 -0.5 15t-0.5 17q-2 9 -4 30t-4 32q-1 2 -3 9t-3.5 13t-0.5 8q1 3 5 4.5t9.5 3.5t7.5 3q28 12 42 23zM517 793
q41 -14 83 -45q19 -17 20 -18q15 -12 21 -22q-6 -11 -57 -30q-4 3 -10 20t-7 19q-28 52 -50 73v3zM440 807q23 -4 42.5 -17t33.5 -34.5t23.5 -40t19.5 -43.5q-2 -3 -6.5 -4.5t-12 -2.5t-8.5 -2q-12 -3 -36.5 -6t-30.5 -4q-19 -3 -26 -1v76v77q0 1 1 2zM439 555v35v36
q6 0 19.5 1t20.5 2q6 1 26.5 3.5t33.5 5.5t23 7h4q2 -3 3 -10t1 -8q11 -43 11 -98l-1 -1h-64h-76q-1 2 -1 27zM195 364q-3 2 -5.5 6t-5.5 10l-4 8q-31 51 -36 114q1 0 1.5 0.5t1.5 0.5h96v-1h1q0 -5 1 -17t2 -19q13 -67 13 -69q-2 -2 -18 -9q-5 -2 -14.5 -7t-14.5 -7
q-15 -10 -18 -10zM302 300q3 -4 8 -11.5t8 -11.5l7 -7q7 -7 8 -11q-11 1 -37 16q-30 17 -43 27q-5 3 -13 12l-13 12q-11 9 -17 17q15 12 39 22q15 6 16 7h3q2 -6 6.5 -17.5t6.5 -16.5q19 -34 21 -38zM414 445l-1 -19v-1q-12 -2 -36.5 -3.5t-36.5 -3.5q-8 -2 -17 -4t-21 -5
t-18 -4q-1 2 -2 8.5t-2 8.5q-1 5 -8 51q-1 5 -1.5 15t-1.5 13q1 0 1.5 0.5t0.5 1.5h65q50 0 77 -1q1 -3 1.5 -14t0 -26t-0.5 -17zM270 562q2 10 3.5 27.5t4 31.5t6.5 25q7 0 29 -7q2 -1 16 -3.5t22 -3.5q11 -1 31 -3l30 -3h1q0 -2 1 -97q-3 -1 -42 -1h-102q-4 9 0 34z
M376 794q5 3 17 6.5t17 6.5q0 -1 2 -1h1q0 -78 1 -153q-8 -4 -37 1q-7 1 -24.5 3t-26.5 4q-5 2 -16 4.5t-17 4.5l-1 1q1 5 14 35q28 61 70 88zM211 708q22 31 82 67q28 13 37 17h3l1 -1q-37 -38 -58 -93q0 -1 -3 -7.5t-4 -10.5q-3 -1 -18 6q-27 13 -40 21v1zM150 583
q13 54 44 104q4 -1 7.5 -2.5t8 -5t6.5 -4.5q5 -2 14 -6.5t14 -7.5q1 0 5.5 -1.5t7 -3t3.5 -3.5q-2 -7 -4.5 -20t-4.5 -19q0 -5 -2.5 -23.5t-3.5 -28.5q-1 -22 -2 -34h-99h-1q-1 23 7 55zM910 205q-4 2 -72 50q-19 -25 -31 -43q-1 -1 -20 8q-30 13 -57 25q-34 16 -92 52
t-73 45q-38 24 -43 26q-1 1 -5 4t-7.5 4.5t-6.5 2.5q-11 -9 -36.5 -27t-38.5 -27q1 -1 12 -9q27 -19 36 -25q14 -10 47.5 -34t51.5 -36v-2q-35 -7 -105.5 -22.5t-105.5 -23.5q-28 15 -81 43.5t-79 43.5q-1 -1 -16 -7q-28 -14 -49 -23l-11 -4q-11 -4 -15 -8v-2
q132 -87 223 -148q12 -1 38 -1h38q22 0 65 -0.5t65 -0.5h23q47 0 61 -3q10 -2 28 -5t23 -4q2 -1 6 -1t7 -1t4 -3q-1 -1 -13.5 -18.5t-18.5 -27.5q2 -3 7.5 -7t13 -8.5t9.5 -5.5q12 -8 33.5 -24.5t34.5 -23.5q1 1 10 13q28 41 30 43q15 21 31.5 45t34.5 50t32 45q7 10 30 42
l9 13q-1 3 -6 6.5t-12.5 8t-8.5 5.5zM878 166q-13 -19 -25 -36q-21 -32 -100 -143q-2 -1 -3 -2q-5 4 -11 8.5t-13.5 9.5t-11.5 8v1l-1 1q24 35 69 99t65 92q6 -4 18.5 -12.5t18.5 -12.5q1 -2 0 -4.5t-3.5 -5t-2.5 -3.5z" />
    <glyph glyph-name="uniE65F" unicode="&#xe65f;" 
d="M91 714q0 21 15.5 35.5t36.5 14.5h263v49q0 21 15 35.5t37 14.5h105q22 0 37 -14.5t15 -35.5v-49h263q21 0 36.5 -14.5t15.5 -35.5v-49h-839v49zM878 565v-611q0 -21 -15.5 -35.5t-37.5 -14.5h-629q-22 0 -37.5 14.5t-15.5 35.5v512v149h735v-50zM353 466
q0 21 -15.5 35.5t-37 14.5t-37 -14.5t-15.5 -35.5v-413q0 -21 15.5 -35.5t37 -14.5t37 14.5t15.5 35.5v413zM563 466q0 21 -15.5 35.5t-37 14.5t-37 -14.5t-15.5 -35.5v-413q0 -21 15.5 -35.5t37 -14.5t37 14.5t15.5 35.5v413zM773 466q0 21 -15.5 35.5t-37 14.5t-37 -14.5
t-15.5 -35.5v-413q0 -21 15.5 -35.5t37 -14.5t37 14.5t15.5 35.5v413z" />
    <glyph glyph-name="uniE660" unicode="&#xe660;" 
d="M456 134l13 15h-257v-43h267zM565 252q20 16 40 29h-393v-44h337q7 7 16 15zM734 -57q-81 0 -167 71h-439v740h591v-431q7 1 15 1h1l26 -2v476q0 18 -12 30.5t-30 12.5h-591q-18 0 -30.5 -12.5t-12.5 -30.5v-828q0 -15 9.5 -27t23.5 -15q5 -1 10 -1h591q21 0 34 17
q-10 -1 -19 -1zM932 141q-4 6 -12 15t-29.5 29.5t-43.5 36.5t-52 28.5t-57.5 12.5t-57.5 -12.5t-52 -28t-43.5 -36t-29.5 -29.5t-13 -15l-6 -8l6 -8q5 -6 13 -15t29.5 -29.5t43 -36.5t51.5 -28.5t58 -12.5q29 0 59.5 13t51.5 28t43 36t28.5 28.5t12.5 15.5l7 8zM737 30
q-33 0 -71 22.5t-58.5 42t-38.5 39.5q18 20 38.5 39t59 41.5t71 22.5t70.5 -22.5t58.5 -42t38.5 -39.5q-91 -103 -168 -103zM744 208q-30 0 -51.5 -22t-21.5 -53q0 -32 21 -54q22 -23 51 -23t51 23t22 53q0 32 -21 54t-51 22zM743 84q-19 0 -33 14.5t-14 35t14 35t33.5 14.5
t33.5 -14.5t14 -35.5q0 -20 -14.5 -34.5t-33.5 -14.5zM207 414h427v-60h-427v60zM207 536h427v-61h-427v61zM207 658h427v-61h-427v61z" />
    <glyph glyph-name="uniE661" unicode="&#xe661;" 
d="M511.5 -66q43.5 0 74.5 31t31 75h-211q0 -44 31 -75t74.5 -31zM882 199h-53v199h-125v158h-150l157 155q-66 52 -148 65q0 1 0.5 2.5t0.5 2.5q0 22 -15.5 37.5t-37.5 15.5t-37.5 -15.5t-15.5 -37.5q0 -1 0.5 -2.5t0.5 -2.5q-113 -18 -189 -106.5t-76 -206.5v-264h-53
q-22 0 -37.5 -15.5t-15.5 -37.5t15.5 -37.5t37.5 -15.5h741q22 0 37.5 15.5t15.5 37.5t-15.5 37.5t-37.5 15.5zM950 601l-143 141l-143 -141h85v-158h116v158h85z" />
    <glyph glyph-name="uniE662" unicode="&#xe662;" 
d="M937 841h-519l-23 -27l-60 -67l52 3l38 41v1h479v-658l45 44v663h-12zM773 416h-2l-87 93l-87 -93v330h-263l-1 -214v-23q9 2 17 2h14q49 0 76 -54q6 -12 10 -27q6 -2 12 -5q40 21 71 21q29 0 48 -18l1 -1l13 -13q36 -35 12 -92q-5 -13 -12 -25q1 -3 3 -7q12 -3 23 -8
q63 -25 63 -77v-13q0 -45 -56 -72q-13 -6 -29 -12q-2 -3 -4 -8q4 -7 7 -14h258v660h-87v-330zM568 143q13 3 27 8t31 16.5t17 23.5v14q0 12 -10.5 22t-26 15.5t-24 7.5t-14.5 3q-7 24 -21 46q6 8 11.5 16.5t11.5 21.5t5.5 25.5t-8.5 20.5l-13 13q-22 21 -88 -19
q-24 12 -50 19q-1 9 -4 18.5t-8.5 23t-15 22t-21.5 8.5h-14q-14 0 -26 -16.5t-17 -29.5t-8 -26q-26 -7 -49 -20q-7 5 -16 10t-23 11.5t-27.5 6t-22.5 -8.5l-13 -11q-23 -22 21 -86q-13 -22 -20 -46q-9 -1 -19 -3.5t-24.5 -8t-24 -15t-9.5 -20.5v-14q0 -10 10 -19t25 -15.5
t24.5 -9.5t17.5 -4q7 -24 20 -46q-43 -65 -20 -86l13 -10q16 -13 35.5 -8t36 14.5t16.5 10.5l-3 3q24 -13 52 -21q2 -8 5 -17t9.5 -23.5t16 -23.5t20.5 -9h14q11 0 20.5 7.5t14.5 17.5t9 21.5t5 18t1 7.5h-4q27 7 52 20q65 -41 87 -20l14 14q8 7 9 18.5t-2.5 21.5t-10 21
t-10 15.5t-5.5 6.5q14 23 21 47zM359 45q-66 0 -112.5 44.5t-46.5 107.5t46.5 108t112.5 45t113 -45t47 -108t-47 -107.5t-113 -44.5zM359 299q-44 0 -75 -30t-31 -72t31 -71.5t75 -29.5t75.5 29.5t31.5 71.5t-31.5 72t-75.5 30zM359 147q-22 0 -37.5 14.5t-15.5 35.5
t15.5 36t37.5 15t37.5 -15t15.5 -36t-15.5 -35.5t-37.5 -14.5z" />
    <glyph glyph-name="uniE663" unicode="&#xe663;" horiz-adv-x="1025" 
d="M689 100q0 -7 -5.5 -12t-12.5 -5h-579q-7 0 -12 5t-5 12v347q0 7 5 12t12 5h637v245q0 7 -5 12t-12 5h-663q-7 0 -12 -5t-5 -12v-651q0 -7 5 -12.5t12 -5.5h663q7 0 12 5.5t5 12.5v242h-40v-200zM75 662q0 8 5 13t12 5h579q7 0 12.5 -5t5.5 -13v-135q0 -13 -13 -17h-589
q-12 4 -12 17v135zM333 346q-8 0 -13.5 -5.5t-5.5 -13.5v-11q0 -8 5.5 -13t13.5 -5h126q8 0 13.5 5t5.5 13v11q0 8 -5.5 13.5t-13.5 5.5h-126zM992 384v0q-1 1 -1 2v0q-1 6 -6 10v1l-185 170q-7 6 -16.5 5.5t-15.5 -6.5q-7 -7 -7 -16q0 -10 8 -16l142 -131h-312
q-9 0 -15.5 -7t-6.5 -16t6.5 -15.5t15.5 -6.5h312l-143 -131q-7 -6 -7.5 -15.5t6.5 -15.5q6 -8 16 -8q9 0 16 6l186 169q3 4 5 8v0q0 1 1 1v0q2 6 1 12z" />
    <glyph glyph-name="uniE664" unicode="&#xe664;" 
d="M503 841q91 0 155.5 -67t64.5 -161.5t-64.5 -161.5t-155.5 -67t-156 67t-65 161.5t65 161.5t156 67zM420 308h184q118 0 201 -86.5t83 -208.5v-19q0 -16 -9 -27.5t-30 -18.5t-43 -11.5t-59.5 -6.5t-66.5 -2.5t-76 -0.5h-184q-51 0 -76.5 0.5t-65.5 2t-60 6t-42.5 11.5
t-31 18.5t-8.5 28.5v19q0 122 83 208.5t201 86.5z" />
    <glyph glyph-name="uniE665" unicode="&#xe665;" 
d="M513 834q10 0 18 -2.5t12.5 -9t7 -12.5t3.5 -17t1 -19t-0.5 -21.5t-0.5 -21.5q0 -4 0.5 -15.5t0.5 -18t-1.5 -14.5t-4.5 -13q-9 -14 -29 -18q-9 -1 -20 5q-8 4 -13 11t-6.5 18.5t-2 20t0.5 25t1 24.5q0 4 -1 17.5t-0.5 22t3.5 14.5q1 4 2.5 6.5t3.5 4.5t4 3l4 3q3 2 4 3
l6 2q5 1 7 2zM245 744q17 0 28 -8q35 -44 52 -64q3 -4 9 -11t11 -13t7 -12q6 -13 0.5 -26t-15.5 -19q-10 -5 -22.5 -4t-20.5 7q-5 4 -10.5 10t-12 15.5t-9.5 12.5q-4 6 -14 17.5t-14 17.5q-2 2 -6 8l-6 8q-2 2 -5.5 8t-4.5 9.5t-1 9t2 10.5t6 11q3 4 6.5 6t10.5 4t9 3z
M780 731q22 1 36 -13.5t5 -35.5q-2 -6 -7 -12t-12 -12l-9 -10q-5 -6 -11.5 -13t-13 -15t-11.5 -13q-16 -20 -22 -24q-8 -5 -19.5 -5.5t-20.5 3.5q-12 7 -17 21.5t3 30.5q26 28 36 40q5 5 14.5 16t13.5 15q15 18 21 22q11 4 14 5zM742 72h-461v211v25v28q0 10 0.5 24t2 25
t4.5 21q26 89 105 135q32 20 76 29q5 0 14.5 1t14.5 2h27q49 -7 55 -9q119 -37 155 -158q3 -12 5 -29.5t2 -26.5v-36v-31v-211zM95 504q9 0 34 -6q27 -5 62 -12q4 -1 11.5 -2t12 -2t9.5 -3.5t9 -5.5q8 -8 10.5 -20.5t-3.5 -25.5q-8 -14 -25 -17q-8 -2 -34 4h-1h-1h-1l-1 1
h-1h-1h-1h-1l-1 1h-1h-1h-1h-1l-1 1h-1h-1h-1h-1l-1 1h-1h-1h-1h-1l-1 1h-1h-1h-1h-1l-1 1h-1h-1h-1h-1l-1 1h-1h-1h-1h-1l-1 1h-1h-1h-1h-1l-1 1h-1h-1h-1h-1l-1 1h-1h-1h-1h-1l-1 1h-1h-1h-1h-1l-1 1h-1h-2q-4 1 -15 3t-17.5 4t-11.5 6q-11 9 -12 27t11 28q2 1 21 10z
M921 485q23 0 35 -19.5t-2 -39.5q-4 -5 -10.5 -8.5t-10.5 -4.5t-15 -2.5t-15 -2.5q-31 -5 -63 -9q-25 -5 -32 -4q-20 5 -28 21q-6 16 0 30t18 19q4 2 9 3t11.5 1.5t10.5 1.5q9 1 30 4.5t32 5.5q6 0 17 2t13 2zM236 40h451q10 0 32 1t32.5 0.5t25.5 -3t24 -8.5t16 -17
q9 -16 6 -32q-2 -12 -6.5 -20.5t-13 -13.5t-16.5 -8t-22 -3.5t-23 -0.5t-26.5 0.5t-27.5 0.5h-324h-94q-40 0 -47 2q-21 9 -31 30.5t3 46.5q9 15 25 21q2 1 7.5 2t8.5 2z" />
    <glyph glyph-name="uniE666" unicode="&#xe666;" 
d="M512 841q-93 0 -177.5 -36t-146 -97.5t-97.5 -146t-36 -177.5t36 -177.5t97.5 -146t146 -97.5t177.5 -36t177.5 36t146 97.5t97.5 146t36 177.5t-36 177.5t-97.5 146t-146 97.5t-177.5 36zM512 28q-97 0 -178.5 48t-129.5 129.5t-48 178.5t48 178.5t129.5 129.5t178.5 48
t178.5 -48t129.5 -129.5t48 -178.5t-48 -178.5t-129.5 -129.5t-178.5 -48zM512 604q21 0 36 -15t15 -36v-171q0 -21 -15 -36t-36 -15t-36 15t-15 36v171q0 21 15 36t36 15zM512 265q21 0 36 -14.5t15 -35.5t-15 -36t-36 -15t-36 15t-15 36t15 35.5t36 14.5z" />
    <glyph glyph-name="uniE667" unicode="&#xe667;" 
d="M757 735q-136 0 -245 78q-109 -78 -245 -78q-47 0 -98 17v-372q0 -53 37 -122q38 -73 108 -148q63 -67 134 -119q26 -19 49 -33q11 -6 21 0q23 14 51 34q72 54 136 121q73 76 112 148q38 69 38 119v372q-51 -17 -98 -17zM549 350v-163q0 -14 -11 -24.5t-26 -10.5
t-26 10.5t-11 24.5v163q-53 12 -88 54t-35 96q0 64 47 109.5t113 45.5t113 -45.5t47 -109.5q0 -54 -35 -96t-88 -54z" />
    <glyph glyph-name="uniE668" unicode="&#xe668;" 
d="M600 124q116 9 181 59.5t81 160.5v491h-571q-105 -1 -180.5 -69t-77.5 -159h-1v-483h165l38 -64q8 -14 32.5 -14t32.5 14l38 64h262zM552 247h-227l-26 -44q-11 -18 -32.5 -18t-32.5 19l-25 43h-51v336q0 28 10 51t26 36t35.5 22.5t39 13t35 5.5t25.5 2l10 -1v1h399v-333
v-2v-2v-9q-3 -17 -3 -20q-11 -44 -47.5 -72.5t-83.5 -28.5h-5q-19 -1 -47 1zM992 591h-79v-76h1v-333q0 -27 -17.5 -47.5t-41.5 -31t-48.5 -17t-41.5 -8.5l-17 -1l-22 -36q-9 -15 -24.5 -15t-24.5 16l-21 35h-251v-74h232l35 -58q7 -12 27.5 -12t26.5 12l40 57q48 4 86 16
t61 27t39.5 35.5t24 35.5t11.5 33.5t4 22.5v10v409z" />
    <glyph glyph-name="uniE669" unicode="&#xe669;" 
d="M689 664q0 70 -49 120t-117 50t-116 -50t-48 -120v-266h330v266zM584 771q6 0 10.5 -4.5t4.5 -11t-4.5 -11t-10.5 -4.5t-10.5 4.5t-4.5 11t4.5 11t10.5 4.5zM524 771q6 0 10.5 -4.5t4.5 -11t-4.5 -11t-10.5 -4.5t-10.5 4.5t-4.5 11t4.5 11t10.5 4.5zM464 771
q6 0 10.5 -4.5t4.5 -11t-4.5 -11t-10.5 -4.5t-10.5 4.5t-4.5 11t4.5 11t10.5 4.5zM404 430q-6 0 -10.5 4.5t-4.5 11t4.5 11t10.5 4.5t10.5 -4.5t4.5 -11t-4.5 -11t-10.5 -4.5zM404 492q-6 0 -10.5 4.5t-4.5 11t4.5 11t10.5 4.5t10.5 -4.5t4.5 -11t-4.5 -11t-10.5 -4.5z
M404 554q-6 0 -10.5 4.5t-4.5 11t4.5 11t10.5 4.5t10.5 -4.5t4.5 -11t-4.5 -11t-10.5 -4.5zM404 616q-6 0 -10.5 4.5t-4.5 11t4.5 11t10.5 4.5t10.5 -4.5t4.5 -11t-4.5 -11t-10.5 -4.5zM434 678q-6 0 -10.5 4.5t-4.5 11t4.5 11t10.5 4.5t10.5 -4.5t4.5 -11t-4.5 -11
t-10.5 -4.5zM464 430q-6 0 -10.5 4.5t-4.5 11t4.5 11t10.5 4.5t10.5 -4.5t4.5 -11t-4.5 -11t-10.5 -4.5zM464 492q-6 0 -10.5 4.5t-4.5 11t4.5 11t10.5 4.5t10.5 -4.5t4.5 -11t-4.5 -11t-10.5 -4.5zM464 554q-6 0 -10.5 4.5t-4.5 11t4.5 11t10.5 4.5t10.5 -4.5t4.5 -11
t-4.5 -11t-10.5 -4.5zM464 616q-6 0 -10.5 4.5t-4.5 11t4.5 11t10.5 4.5t10.5 -4.5t4.5 -11t-4.5 -11t-10.5 -4.5zM494 678q-6 0 -10.5 4.5t-4.5 11t4.5 11t10.5 4.5t10.5 -4.5t4.5 -11t-4.5 -11t-10.5 -4.5zM524 430q-6 0 -10.5 4.5t-4.5 11t4.5 11t10.5 4.5t10.5 -4.5
t4.5 -11t-4.5 -11t-10.5 -4.5zM524 492q-6 0 -10.5 4.5t-4.5 11t4.5 11t10.5 4.5t10.5 -4.5t4.5 -11t-4.5 -11t-10.5 -4.5zM524 554q-6 0 -10.5 4.5t-4.5 11t4.5 11t10.5 4.5t10.5 -4.5t4.5 -11t-4.5 -11t-10.5 -4.5zM524 616q-6 0 -10.5 4.5t-4.5 11t4.5 11t10.5 4.5
t10.5 -4.5t4.5 -11t-4.5 -11t-10.5 -4.5zM554 678q-6 0 -10.5 4.5t-4.5 11t4.5 11t10.5 4.5t10.5 -4.5t4.5 -11t-4.5 -11t-10.5 -4.5zM584 430q-6 0 -10.5 4.5t-4.5 11t4.5 11t10.5 4.5t10.5 -4.5t4.5 -11t-4.5 -11t-10.5 -4.5zM584 492q-6 0 -10.5 4.5t-4.5 11t4.5 11
t10.5 4.5t10.5 -4.5t4.5 -11t-4.5 -11t-10.5 -4.5zM584 554q-6 0 -10.5 4.5t-4.5 11t4.5 11t10.5 4.5t10.5 -4.5t4.5 -11t-4.5 -11t-10.5 -4.5zM584 616q-6 0 -10.5 4.5t-4.5 11t4.5 11t10.5 4.5t10.5 -4.5t4.5 -11t-4.5 -11t-10.5 -4.5zM614 678q-6 0 -10.5 4.5t-4.5 11
t4.5 11t10.5 4.5t10.5 -4.5t4.5 -11t-4.5 -11t-10.5 -4.5zM644 430q-6 0 -10.5 4.5t-4.5 11t4.5 11t10.5 4.5t10.5 -4.5t4.5 -11t-4.5 -11t-10.5 -4.5zM644 492q-6 0 -10.5 4.5t-4.5 11t4.5 11t10.5 4.5t10.5 -4.5t4.5 -11t-4.5 -11t-10.5 -4.5zM644 554q-6 0 -10.5 4.5
t-4.5 11t4.5 11t10.5 4.5t10.5 -4.5t4.5 -11t-4.5 -11t-10.5 -4.5zM644 616q-6 0 -10.5 4.5t-4.5 11t4.5 11t10.5 4.5t10.5 -4.5t4.5 -11t-4.5 -11t-10.5 -4.5zM523 153q68 0 117 50t49 120v44h-330v-44q0 -71 48 -120.5t116 -49.5zM749 321v46h-30v-46q0 -83 -57.5 -142
t-138.5 -59q-80 0 -137 59t-57 142v46h-30v-46q0 -87 55 -151.5t138 -76.5v-94q-63 -5 -106.5 -24t-43.5 -40l92 -1h184l93 1q0 22 -47 41.5t-113 22.5v93q84 11 141 76t57 153z" />
    <glyph glyph-name="uniE66A" unicode="&#xe66a;" 
d="M969 -8.5q0 -22.5 -16 -39t-38.5 -16.5t-38.5 16l-161 163q-52 -31 -112 -31q-90 0 -154.5 65t-64.5 156.5t64.5 156.5t155 65t155 -65t64.5 -156q0 -61 -31 -113l161 -162q16 -17 16 -39.5zM603.5 472q-68.5 0 -116.5 -49t-48 -117.5t48 -117.5t116.5 -49t116.5 49
t48 117.5t-48 117.5t-116.5 49zM523 194q-12 7 -25.5 25t-17.5 31h236l-21 -55zM495 392h221v-56l-250 -3q-5 14 29 59zM245 79h-38v38h38v-38zM245 194h-38v38h38v-38zM245 308h-38v38h38v-38zM207 574h38v-38h-38v38zM245 422h-38v38h38v-38zM468 79h-185v38h138
q21 -21 47 -38zM370 194h-87v38h74q5 -21 13 -38zM283 346h69q-4 -19 -4 -38h-65v38zM283 574h305v-11q-51 -4 -96 -27h-209v38zM283 422v38h118q-14 -18 -24 -38h-94zM664 653h-152v112h-381v-760h533v38q20 5 49 22l28 -29v-109h-686v914h531l155 -152v-162q-36 22 -77 31
v95z" />
    <glyph glyph-name="uniE66B" unicode="&#xe66b;" 
d="M512 841q93 0 177.5 -36t146 -97.5t97.5 -146t36 -177.5t-36 -177.5t-97.5 -146t-146 -97.5t-177.5 -36t-177.5 36t-146 97.5t-97.5 146t-36 177.5t36 177.5t97.5 146t146 97.5t177.5 36z" />
    <glyph glyph-name="uniE66C" unicode="&#xe66c;" horiz-adv-x="1025" 
d="M400 48h-300q-8 0 -14 5.5t-6 13.5v391q0 8 6 14t14 6h348q3 3 5 4q27 27 59 48h-418q-14 4 -14 19v153q0 8 6 13.5t14 5.5h653q8 0 13.5 -5.5t5.5 -13.5v-123q24 -4 46 -12v187q0 8 -5.5 13.5t-14.5 5.5h-746q-8 0 -14 -5.5t-6 -13.5v-734q0 -8 6 -14t14 -6h382
q-19 23 -34 48zM703.5 -57q-119.5 0 -203.5 84.5t-84 204t84 203.5t203.5 84t204 -84t84.5 -203.5t-84.5 -204t-204 -84.5zM704 465q-97 0 -165.5 -68.5t-68.5 -165.5t68.5 -165.5t165.5 -68.5t165.5 68.5t68.5 165.5t-68.5 165.5t-165.5 68.5zM803 105q-11 0 -19 8l-80 80
l-80 -80q-8 -8 -19 -8t-19 8t-8 19t8 19l80 80l-80 80q-8 8 -8 19t8 19t19 8t19 -8l80 -80l80 80q8 8 19 8t19 -8t8 -19t-8 -19l-80 -80l80 -80q8 -8 8 -19t-8 -19t-19 -8z" />
    <glyph glyph-name="uniE66D" unicode="&#xe66d;" 
d="M176 477h445v-195h-445v195zM992 487v2v85q0 16 -10 29q-9 20 -27 20h-886q-18 0 -27 -20q-10 -13 -10 -29v-85v-2v-302q0 -15 9 -27q9 -21 28 -21h886q19 0 28 21q9 12 9 27v302zM128 234v291h768v-291h-768z" />
    <glyph glyph-name="uniE66E" unicode="&#xe66e;" 
d="M992 57q0 -18 -13 -31t-32 -13h-869h-1q-18 0 -31.5 13t-13.5 31q0 13 8 24h-1l435 691q14 20 38 20q25 0 38 -21h1l434 -691q7 -11 7 -23zM572 542q0 25 -17.5 42t-42.5 17t-42.5 -17t-17.5 -42v-220q0 -25 17.5 -42t42.5 -17t42.5 17t17.5 42v220zM512 219
q-25 0 -42.5 -17.5t-17.5 -41.5t17.5 -41.5t42.5 -17.5t42.5 17.5t17.5 41.5t-17.5 41.5t-42.5 17.5z" />
    <glyph glyph-name="uniE66F" unicode="&#xe66f;" 
d="M681 419h-338q-84 0 -143 62t-59 149.5t59 149t143 61.5h338q84 0 143 -61.5t59 -149t-59 -149.5t-143 -62zM681 806h-338q-70 0 -119.5 -51.5t-49.5 -124.5t49.5 -124.5t119.5 -51.5h338q70 0 119.5 51.5t49.5 124.5t-49.5 124.5t-119.5 51.5zM343 490q-56 0 -95.5 41
t-39.5 99t39.5 99.5t95.5 41.5t95.5 -41.5t39.5 -99.5t-39.5 -99t-95.5 -41zM343 349h338q84 0 143 -62t59 -149.5t-59 -149t-143 -61.5h-338q-84 0 -143 61.5t-59 149t59 149.5t143 62zM681 -3q56 0 95.5 41.5t39.5 99.5t-39.5 99.5t-95.5 41.5t-95.5 -41.5t-39.5 -99.5
t39.5 -99.5t95.5 -41.5z" />
    <glyph glyph-name="uniE670" unicode="&#xe670;" 
d="M841 13l-51 50q61 70 95 157t34 182.5t-34 182.5t-95 156l51 51q72 -79 111.5 -179t39.5 -210.5t-39.5 -210.5t-111.5 -179zM700 152l-51 50q71 88 71 200.5t-71 199.5l51 51q93 -109 93 -250.5t-93 -250.5zM485 117q-18 0 -32 11l-185 132h-181q-23 0 -39 15.5t-16 37.5
v178q0 23 16 38.5t38 15.5h181l183 148h1q15 12 34 12q22 0 38 -15.5t16 -37.5v-481q0 -22 -16 -38t-38 -16z" />
    <glyph glyph-name="uniE671" unicode="&#xe671;" 
d="M512 -73q-93 0 -177.5 36t-146 97.5t-97.5 146t-36 177.5t36 177.5t97.5 146t146 97.5t177.5 36t177.5 -36t146 -97.5t97.5 -146t36 -177.5t-36 -177.5t-97.5 -146t-146 -97.5t-177.5 -36zM512 755q-101 0 -186.5 -49.5t-135 -135t-49.5 -186.5t49.5 -186.5t135 -135
t186.5 -49.5t186.5 49.5t135 135t49.5 186.5t-49.5 186.5t-135 135t-186.5 49.5zM698 341h-186q-18 0 -30.5 12.5t-12.5 30.5v257q0 18 12.5 30.5t30.5 12.5t30.5 -12.5t12.5 -30.5v-214h143q17 0 30 -12.5t13 -30.5t-13 -30.5t-30 -12.5z" />
    <glyph glyph-name="uniE672" unicode="&#xe672;" 
d="M222 701q-8 9 -21 9t-22 -9t-9 -21.5t9 -21.5l43 -43q9 -9 22 -9t21.5 9t8.5 21.5t-8 21.5zM802 701l-44 -43q-9 -9 -9 -21.5t9 -21.5t22 -9t22 9l43 43q9 9 9 21.5t-9 21.5t-22 9t-21 -9zM146 460h-61q-12 0 -21 -9t-9 -21.5t9 -21.5t21 -9h61q13 0 22 9t9 21.5t-9 21.5
t-22 9zM939 460h-61q-13 0 -22 -9t-9 -21.5t9 -21.5t22 -9h61q12 0 21 9t9 21.5t-9 21.5t-21 9zM482 811v-61q0 -13 8.5 -22t21.5 -9t21.5 9t8.5 22v61q0 12 -8.5 21t-21.5 9t-21.5 -9t-8.5 -21zM299 384q0 88 62.5 150.5t150.5 62.5t150.5 -62.5t62.5 -150.5t-62.5 -150.5
t-150.5 -62.5t-150.5 62.5t-62.5 150.5zM238 384q0 -114 80 -194t194 -80t194 80t80 194t-80 194t-194 80t-194 -80t-80 -194zM451 -43q0 -12 9 -21t22 -9h60q13 0 22 9t9 21.5t-9 21.5t-22 9h-60q-13 0 -22 -9t-9 -22zM390 49q0 -13 9 -22t22 -9h182q13 0 22 9t9 21.5
t-9 21.5t-22 9h-182q-13 0 -22 -9t-9 -21z" />
    <glyph glyph-name="uniE673" unicode="&#xe673;" 
d="M176 500h679v-195h-679v195zM992 510v1v86q0 16 -10 28q-9 20 -27 20h-886q-18 0 -27 -20q-10 -12 -10 -28v-86v-1v-302q0 -15 9 -28q9 -21 28 -21h886q19 0 28 21q9 13 9 28v302zM128 257v291h768v-291h-768z" />
    <glyph glyph-name="uniE674" unicode="&#xe674;" 
d="M992 210q0 -20 -14 -34t-34 -14h-865q-19 0 -33 14t-14 34v384q0 20 14 34t33 14h865q20 0 34 -14t14 -34v-384zM897 546h-770v-288h770v288z" />
    <glyph glyph-name="uniE675" unicode="&#xe675;" 
d="M992 468q0 -52 -35.5 -88.5t-85 -36.5t-84.5 36.5t-35 88.5v0q0 -52 -35 -88.5t-85 -36.5t-85 36.5t-35 88.5v0v0q0 -52 -35 -88.5t-85 -36.5t-85 36.5t-35 88.5v0v0q0 -52 -35 -88.5t-84.5 -36.5t-85 36.5t-35.5 88.5v0l85 232h790zM842 747h-660q-18 0 -31.5 13.5
t-13.5 32.5t13.5 33t31.5 14h660q18 0 31.5 -14t13.5 -33t-13.5 -32.5t-31.5 -13.5zM167 298q5 0 13 2h1h2q1 0 2.5 0.5t2.5 0.5q13 3 24 8v-229h600v229q10 -5 24 -8l2 -1h3h2h1q8 -2 13 -2q8 -1 15 -1q14 0 30 3v-313q0 -19 -13.5 -33t-31.5 -14h-690q-18 0 -31.5 14
t-13.5 33v313q16 -3 30 -3q7 0 15 1z" />
    <glyph glyph-name="uniE676" unicode="&#xe676;" 
d="M984 108q-57 58 -84 85l-14 13l-12 13q-1 0 -2 1l-3 3q0 1 2 6t3 8q3 7 13 41q9 32 12.5 76.5t-2.5 83.5q-15 75 -24 97q-22 60 -60.5 111t-91 91t-122 62.5t-146.5 20.5q-3 -2 -21 -1.5t-19 0.5q-49 -7 -90 -23q-183 -72 -254 -235q-17 -40 -29 -96q-10 -49 -7 -101.5
t16 -95.5q27 -94 79.5 -157t133.5 -112q37 -21 119 -43q6 -1 17.5 -3t16.5 -4q0 1 -1 1v1q10 0 32 -1.5t34 -2t30 1.5q134 20 214 83q15 13 31 28q26 20 54 58q2 2 6.5 8.5t6.5 9.5q1 1 2 1q78 -77 98 -97q11 -6 24.5 -5t22.5 8q15 10 20.5 28.5t-5.5 36.5zM270 745
q22 12 52 24q1 1 9.5 4t13.5 4h1q-17 -24 -24 -33q-5 -7 -17 -26q-2 -1 -12 3t-22 9.5t-14 6.5zM188 686q4 4 12.5 11t12.5 11q3 2 9 6.5t9 6.5q9 -5 29.5 -13.5t30.5 -13.5q-49 -88 -59 -132h-134q41 84 90 124zM87 537h136q-2 -8 -9 -37q-13 -55 -12 -115h-145
q1 88 30 152zM82 243l-14 50q-4 23 -8 47q-1 10 -2 19h144q0 -54 12 -102q2 -6 5 -19t5 -19h-132q-1 3 -4.5 11t-5.5 13zM133 147q-24 34 -28 46h127q2 -5 11.5 -29t14.5 -36q5 -10 15.5 -29t15.5 -30q-43 -16 -57 -22q-52 33 -99 100zM279 18q-11 6 -21 12v1q2 0 45 16
q39 -54 40 -55q-26 7 -64 26zM453 -27q-52 0 -68 8q-15 19 -16 20q-32 40 -40 53q3 2 8.5 3t12.5 2t9 2q48 11 94 10v-98zM453 96q-54 0 -94 -9q-43 -10 -45 -10q-27 50 -29 53q-5 12 -14 33.5t-12 29.5h65h64h65v-97zM453 219h-202q-11 25 -17.5 65.5t-6.5 74.5h226v-140z
M453 385h-226q0 60 14 116q1 4 2.5 11.5t3 13.5t3.5 10v1h203v-152zM453 562h-195q2 6 6.5 17t5.5 15q20 48 29 64q4 7 15 27q4 1 12 -1.5t18 -6t12 -4.5q41 -11 97 -14v-97zM453 685q-48 0 -97 14q-17 6 -27 9q0 3 4 9t10.5 14t7.5 9q32 45 36 48q15 7 66 7v-110zM730 697
q66 -51 105 -135h-137q-31 74 -65 132q6 2 21 7.5t26 10.5t18 10q5 -3 10.5 -7t12 -9.5t9.5 -8.5zM651 751q2 -1 10 -5.5t13 -6.5q-5 -5 -54 -23q-7 11 -21.5 32t-21.5 32q29 -6 74 -29zM479 795q11 0 33.5 -2t26.5 -4q9 -13 14 -20q3 -4 13.5 -17.5t17.5 -24t10 -18.5l1 -1
q-3 -2 -11.5 -4.5t-12.5 -3.5q-53 -16 -92 -15v110zM479 659q65 3 130 26q4 -4 7 -9.5t6.5 -13t5.5 -11.5q16 -27 43 -88v-1h-192v97zM479 537h201q11 -34 15 -45q-7 -2 -23.5 -4.5t-24.5 -5.5q-33 -13 -64 -40t-39 -57h-65v152zM479 359h56q-1 -3 -3 -13.5t-2 -15.5
q-5 -29 6 -65q2 -9 9.5 -23.5t10.5 -21.5q0 -1 1 -1h-78v140zM479 193h98q0 -1 6 -6t8 -7t7.5 -6.5t8.5 -7t8.5 -6t9.5 -5.5t9 -4t9 -3q0 -3 -9 -18q-10 -19 -17 -31q-12 -20 -12 -21q-3 0 -17.5 3.5t-22.5 4.5q-44 10 -86 9v98zM534 -21q-11 -6 -55 -6v97q18 0 36.5 -2.5
t41 -6.5t32.5 -6q-5 -9 -40 -56q-11 -14 -15 -20zM574 -12h-2q2 1 18.5 24t24.5 36q10 -2 28 -9.5t28 -8.5v-2q-35 -18 -97 -40zM788 130q-28 -36 -66 -66q-2 -2 -6.5 -6t-8.5 -7t-8 -5q-2 0 -18 7q-28 9 -51 17q0 1 10 18q2 4 28 52q36 -6 74 0t59 24q0 -1 2 -3.5t3 -4.5
q-10 -14 -18 -26zM846 255q-11 -27 -19 -32q-1 -1 -7 -5t-8 -7q-2 -2 -4.5 -7t-4.5 -7q-2 -1 -5.5 -4t-4.5 -4q-27 -19 -82 -28q-26 -4 -68 15q-47 20 -74 72t-8 112q21 69 90 97q18 5 29 8q3 0 10 1t9 1q108 0 147 -96q11 -24 11 -57.5t-11 -58.5zM845 424q-21 28 -53 47
t-71 20q-7 25 -14 46h138q3 -3 5.5 -9t4.5 -15.5t3 -12.5q18 -59 17 -115h-6q-2 3 -4.5 8.5t-3.5 6.5q-11 16 -16 24zM695 419q-6 -2 -16 -3.5t-15 -3.5q-47 -19 -62 -70q-13 -42 7 -77.5t53 -50.5q29 -12 50 -8q66 11 88 61q26 59 -8 106t-97 46z" />
    <glyph glyph-name="uniE677" unicode="&#xe677;" horiz-adv-x="1025" 
d="M992 354q0 -3 -0.5 -8.5t-0.5 -8.5q0 -1 -1.5 -9t-2.5 -12q-5 -21 -12 -37q-5 -11 -6 -13t-4 -7t-4 -7q-5 -7 -14 -20q-2 -3 -6 -7l-6 -6q-4 -5 -8 -9q-2 -2 -7 -6q-14 -11 -18 -14q-31 -21 -74 -32q-5 -1 -13 -2.5t-10 -1.5t-5 -0.5t-5 -0.5h-5h-5h-6h-7h-7q-7 1 -15 1
h-128q-35 0 -155 1q-1 0 -5 6l-1 1l-1 1q-1 2 -3 5q0 1 -1 1q0 1 -0.5 1t-1 1t-0.5 1.5t-1 1.5l-1 1q-1 1 -2 3v1q-1 1 -1.5 2l-0.5 1l-2 2q0 1 -1 2l-1 1q-1 1 -2 2.5t-1 2t-1 1.5l-1 1q-1 2 -1 3l-3 3q0 1 -2 3q0 1 -1 2l-1 1q0 1 -0.5 2t-1 1.5t-1 1.5t-1.5 1q0 1 -2 4
q-1 1 -1 2l-1 1q-1 2 -2 3l-1 1l-1 1q-2 3 -2 4q-1 1 -2 3q-1 1 -1 1.5t-1 1.5l-2 2q-1 1 -2 4l-3 3q0 1 -1 3q-1 1 -2 3q-2 3 -3 4l-1 1t-1 2v1l-1 1l-2 2q0 1 -1 1q0 1 -1 3l-1 1q0 1 -1 1.5t-1 1t-0.5 1.5t-0.5 2q-4 4 -4 5v1v2l1 5q1 1 2 2.5t1 2.5q1 2 1 3q1 1 2 2.5
t1 2.5q1 2 1 5q1 0 2 1.5t1 2.5q1 3 1 5q1 1 2 3t1 3q1 4 2 5q0 1 1 2.5t1 2.5q1 4 2 6t2 6q1 3 2 7q1 3 2 5l2 9q1 2 2 6q1 2 1 6v6l2 4q1 3 2 5q0 2 0.5 7t0.5 8t1 8.5t1 6.5t0.5 5t0.5 6v9q0 2 -0.5 5.5t-0.5 4.5q-2 13 -2 16q-1 7 -1 11q-1 2 -2 5t-1 4q-1 2 -1 4.5
t-1 4.5q0 1 -1 2.5t-1 2.5t-0.5 3t-0.5 3l-2 3l-1 2q-1 5 -2 6q0 1 -1 2t-1 2q-1 2 -2 5l-2 3q-1 1 -3 5v1l-1 1q-1 1 -1.5 2t-0.5 1.5t-1 2t-2 1.5q0 1 -1 3t-2 3t-2 3q-3 3 -3 3.5t-1 1.5t-1 2l-2 1q0 1 -2 4l-2 1q-1 2 -2 3q0 1 -1 1l-1 1q-6 8 -13 15q-3 1 -3 2h-2v1.5
t-1 1t-1 1.5q-1 0 -3 2h-1q0 1 -1 1l-3 3q-2 1 -5 4t-5 4q-1 1 -3 2l-3 3q-1 0 -2 0.5t-2 0.5q-1 1 -2 3q-2 0 -3 1q-2 1 -4 3q-1 0 -4 1l-3 3q-2 1 -4 1l-3 3q-1 0 -2 1h-1q-4 2 -4 3q-1 0 -3 0.5t-2 1.5q-2 0 -4 2q-3 1 -5 1q-2 2 -4 3q-4 1 -5 2q-2 0 -5 2q-1 0 -3 0.5
t-3 0.5q-3 2 -5 3q-1 0 -2.5 0.5t-2.5 0.5v1t4 4q0 1 1 2t2 1l3 2q0 1 1 1.5t1.5 1l1.5 1.5h1l4 2q1 1 3 2h2q2 1 7 3q1 0 5 0.5t5 0.5q2 0 10 2h4h5q3 1 7 0q3 -1 8.5 -1.5t8.5 -0.5t7.5 -0.5t6.5 -0.5q2 -1 5 -2t4 -1q4 0 10 -1q2 -1 4.5 -2t3.5 -1t3.5 -0.5t3.5 -0.5
l4 -3q5 -2 9 -1q1 0 5 4l1 1h1q2 1 3 2t3 2t4 3l1 1q1 0 1.5 0.5t1.5 1t1 1.5q1 0 2 1h1l3 3q1 0 3 1l2 2q1 1 2 1q1 1 3 1q0 1 1 2l2 1q2 1 3 1q3 2 4 3q1 0 3 1q2 2 4 3l4 2q1 0 4 2q0 1 1.5 1t2 0.5t2 1.5t2.5 1.5t4 1.5q1 1 4 2q1 1 5 2l1 1q2 1 3 1q3 1 5 2q1 0 3 2
q1 0 2 1q4 0 5 1q5 2 6 3q1 0 3 0.5t3 0.5t3 1t3 2q5 1 8 1q1 0 3.5 1.5t4.5 1.5q5 0 12 1l4 1q4 1 5 2q4 1 16 1h8q11 0 16 -1h11q1 0 11 -3q7 -1 11 -1q1 0 3.5 -1.5t3.5 -1.5t3.5 -0.5t4.5 -1.5q3 -1 4 -2q3 -1 6 -1q1 -1 3 -2q1 -1 2 -1q1 -1 2 -1l2 -1q3 -2 4 -2
q1 -1 2.5 -1h1.5l2 -2q1 -1 1.5 -1t4.5 -2q1 -1 3 -2l1 -1q1 0 2 -1t3 -2l1 -1q1 0 2 -1l2 -1q1 -1 1 -2q2 0 3 -1l2 -3l2 -1q1 0 2 -1l1 -1q17 -14 22 -20q1 -1 3 -2q13 -16 16 -19q1 -2 2 -3l2 -2q1 -2 3.5 -5t2.5 -4l2 -2q1 -2 2 -3q1 -2 2 -2q0 -1 1 -2.5t1 -2.5
q1 0 2 -1v-1q1 -3 2 -3q1 -1 2 -4q2 -3 3 -4q0 -1 1 -1v-1q2 -3 3 -5l1 -1q0 -1 1 -2q0 -2 0.5 -3t1.5 -2.5t2 -2.5l1 -1v-1q2 -4 3 -5q0 -1 1 -5q11 0 18 -1q2 -1 8.5 -1.5t10.5 -1.5q24 -5 42 -13q81 -35 115 -122q4 -11 10 -40q1 -3 1 -9.5t1 -9.5v-9v-6v-4v-2zM266 588
q1 0 3 -0.5t3 -0.5l2 -1l2 -2q1 0 2.5 -0.5t2.5 -0.5l4 -2q0 -1 2 -1l2 -1q1 -1 4 -3h1l2 -1l3 -3l3 -1q3 -2 4 -3q2 -1 3 -1q1 -2 3 -3q6 -4 14 -11q10 -11 11 -12l3 -3l2 -2q1 -2 1 -3q1 0 2 -1q2 -3 2 -4h1l1 -1q2 -3 6 -10l1 -1l1 -2q1 -2 2 -5q1 0 1 -1l1 -1l3 -6
q0 -1 1 -2t1.5 -3t0.5 -3t1.5 -2.5t1.5 -2.5t0.5 -2.5t0.5 -2.5t1 -2.5t2 -2.5q0 -1 0.5 -4t0.5 -4t1 -3.5t2 -4.5q0 -3 1 -14q2 -9 3 -13v-3v-3v-3v-4q0 -6 -1 -9q0 -2 -1 -7t-1 -7t-0.5 -6t-0.5 -6q-2 -5 -3 -7q0 -4 -1 -9q-1 -1 -1.5 -2t-0.5 -2q-2 -5 -2 -7l-2 -2l-1 -2
q0 -2 -1 -6q-1 0 -3 -3q0 -1 -0.5 -2.5t-1.5 -2.5l-2 -2q-1 -3 -2 -5q-1 -1 -2 -3q-6 -9 -6 -9.5t-2 -2.5q-1 -2 -3 -4t-4 -4.5t-3 -3.5l-3 -3l-3 -3l-10 -10q-7 -5 -7 -7t3 -8q1 -1 2 -3q0 -1 1 -1.5t1 -1.5q1 -2 1 -3q2 -3 3 -3q0 -1 1 -2.5t1 -2.5q1 0 2 -1q0 -1 1 -2.5
t1 -2.5l1 -2q1 0 1 -1l1 -1q1 -2 1 -3l1 -1l1 -1q2 -4 2 -5l1 -1l1 -1l1 -3l2 -2t1 -2l1 -1q0 -2 1 -2q0 -1 2 -3q0 -1 1 -2.5t1 -2.5h1v-1l1 -1q1 0 1 -1v-1q1 -1 2 -2.5t2 -2.5v-1l3 -5v0l47 -73q18 -27 9 -44l-8 -6q-6 -5 -20 0t-23 19l-36 54q-2 1 -6 9q0 1 -1 1.5
t-1.5 1l-1.5 1.5v1q-2 3 -3 5q-1 0 -1.5 1t-0.5 2l-2 1q-1 2 -1 3q-2 3 -3 4l-1 1q-1 2 -2 3v1h-1q-1 2 -2 3q-1 2 -2 3q0 1 -2 3q0 1 -1 2l-1 1l-2 4q-2 1 -2 1.5t-0.5 1.5t-1.5 2q-1 2 -3 4v1q-1 1 -1 1.5t-1 0.5l-1 1q-1 2 -1 3l-4 4v2l-2 2t-2 1q0 1 -1 3l-1 1
q-1 1 -1 2q-2 3 -3 4q0 1 -0.5 1.5t-1.5 0.5q-1 3 -2 4l-1 1q-1 1 -2 3l-1 3q-1 1 -3 2q-3 1 -5 0.5t-5.5 -2t-4.5 -1.5q-10 -1 -14 -1l-12 -2h-2q-3 -1 -4 -1h-7h-6q-15 3 -19 3q-1 1 -5 1h-6q-1 1 -3 2t-3 1t-4 0.5t-4 1.5l-3 1q-2 1 -3 1t-3 0.5t-3 1t-2.5 1.5t-2.5 1
q-3 1 -5 2t-3 2q-2 1 -5 2l-1 1l-2 1l-4 2q-1 1 -3 2t-2.5 1.5t-2 1.5t-2.5 2q-1 0 -2 1l-3 3q-14 9 -26 23q-1 1 -3 3.5t-3 3.5l-2 2l-1 1v2q-1 0 -1.5 1t-1.5 1q-1 1 -2 4q-1 2 -2 3t-2 3l-1 1q-1 1 -1 2q-1 3 -2 5l-2 2q-2 4 -2 5t-1 2l-1 1q-1 2 -1.5 3.5t-0.5 2.5
t-1 2.5t-1.5 2.5t-1 3t-0.5 3q-1 1 -1.5 2t-0.5 2q-1 6 -2 9l-1 4q-2 3 -2 5t-0.5 5t-0.5 5q-1 7 -2 17l-1 2v4q0 4 1 7v3v2q0 2 1 7t1 8q1 7 1 11q1 2 2 5t1 4q1 3 2 9l1 2q0 1 1 1q0 2 0.5 4.5t1.5 3.5q0 1 1 2t1 2q1 4 2 5q0 1 0.5 2t1.5 2t2 4q0 1 1 2l1 1q0 1 1 2.5
t1 2.5l1 2l1 1q1 1 2 3l2 2q1 3 2 4q0 1 2 3q1 0 1.5 1t0.5 1.5t2 2.5q4 5 10 11l3 3q2 2 2 3q7 6 12 10q1 0 2 2q1 0 3 1q1 2 2 3q1 0 2 0.5t2 0.5l3 3q1 1 3 1l3 3q1 0 4 1q1 2 3 3t4 1l4 3q1 0 2.5 0.5t2.5 0.5l3 2q2 1 3 1q2 1 5 2l2 1q2 1 3 1q2 1 5 1.5t4 0.5l3 1
q4 1 6 2h7q1 0 5 1t6 1q7 1 9 1q5 1 6 1q11 0 26 -3q2 0 6.5 -0.5t6.5 -0.5l4 -2q3 -1 4 -1q3 -1 8 -2q1 0 3 -1t3 -2zM255 533q-1 1 -3 1t-3 1t-4 2q-1 1 -3.5 1.5t-4.5 0.5q-1 0 -3.5 1t-4.5 2h-4h-4q-3 1 -17 1q-10 -1 -14 -1q-1 0 -3.5 -0.5t-3.5 -0.5q-4 -1 -6 -2
q-1 -1 -3.5 -1t-4.5 -1t-5 -2t-5 -2q-1 -1 -3 -2q-1 -1 -2.5 -1t-2.5 -0.5t-2 -1.5l-1 -1l-4 -2l-2 -2q-1 0 -2 -1l-2 -1l-2 -1v-1q-2 -2 -3 -2l-2 -2l-1 -1l-2 -2q-1 0 -1.5 -1t-1.5 -2q-3 -2 -8 -8l-1 -1l-1 -1q-1 -1 -2 -3q-1 -1 -2 -1q0 -2 -2 -5l-2 -3q-1 -1 -2 -3
q-2 -2 -2 -3q-1 -1 -2 -5l-1 -1q-1 -1 -1 -2q-1 -4 -2 -6l-1 -2q-1 -2 -2 -3l-1 -7q0 -1 -1 -3.5t-2 -3.5v-6q0 -4 -1 -6q-1 -7 0 -13v-5q0 -4 0.5 -5.5t0.5 -4.5v-5q0 -2 2 -5l1 -4q0 -2 1 -7q1 -1 2 -3l1 -2q0 -1 0.5 -3t1 -3t1.5 -2l1 -1q1 -4 2 -6l1 -1q1 -1 1 -1.5
t0.5 -1t0.5 -1.5q1 0 2 -1.5t1 -2.5q1 -1 1.5 -2t1.5 -2q0 -1 1 -2q1 0 1.5 -1t0.5 -1.5t1 -1t1.5 -1t0.5 -1.5l1 -1q1 0 1 -1h1q1 -2 2 -3l2 -2l3 -3h1l1 -1l3 -3q1 -1 2.5 -2t2.5 -2l2 -1q1 -1 2 -1l3 -3l1 -1h2q2 -1 3 -2q3 -1 4 -2q4 -2 4 -3q3 0 5 -1l6 -3q1 0 3 -0.5
t3 -0.5q2 0 4.5 -1t4.5 -2h5q4 0 6 -1q8 -1 15 0h3h4q5 1 9 1l10 3q2 0 4.5 0.5t3.5 0.5q4 2 7 3q1 1 3.5 1t4.5 1l2 1l2 2q1 0 2 1q1 0 2 1v1q1 0 2 1t2 1q7 6 12 11q1 0 2 1l2 2l2 2l2 2l1 1l2 2q2 2 2 3q1 0 2 1q3 5 9 12q0 1 0.5 2t0.5 2q1 1 2 1q0 1 1 3t1 3t1 2l1 1
q1 2 2 6q0 1 1.5 3t1.5 3t0.5 3t0.5 3.5t1.5 4t1.5 4.5q1 2 1 8v8v5q1 5 0 11v4q0 4 -1 5v6q-1 0 -1.5 2.5t-1.5 3.5q0 1 -0.5 3.5t-0.5 3.5q-1 1 -2 3l-1 2q-1 4 -2 6q0 1 -1 2l-1 1q-1 2 -2 6l-1 1l-1 1q0 1 -1 3q-2 2 -3 4l-1 1q-1 2 -1 3q-2 1 -2 2q-1 1 -2 3h-1l-1 1
q-10 12 -27 24q-2 1 -3 2q-1 0 -2 1t-2 1t-2 0.5t-2 0.5q0 1 -1.5 2t-2.5 1z" />
    <glyph glyph-name="uniE678" unicode="&#xe678;" 
d="M483 186q-11 0 -13 11q-8 60 69 104q2 1 3 1q6 4 20 11q22 12 35.5 19.5t34 23t31.5 33t12 37.5q2 22 -5.5 40t-17.5 27.5t-24 16.5t-20 8l-10 3q-9 2 -11 11q0 4 -1.5 9t-7.5 16.5t-15 20.5t-26.5 16.5t-39.5 8.5q-33 2 -56.5 -11.5t-31.5 -33.5q-3 -9 -12 -9
q-22 0 -32 -11q-8 -10 -8 -30q1 -6 -3 -10.5t-10 -4.5q-26 0 -42.5 -17t-18.5 -44q-1 -32 19 -52.5t48 -28.5q44 -11 87.5 -11.5t85.5 16.5q30 15 29 32q0 7 -1.5 11t-11.5 10t-29 9q-2 0 -21 2q-1 0 -6 0.5t-8 0.5q-22 2 -32 6q-37 15 -36 52q1 29 19 45t36 19q48 8 81 -18
q21 -17 28 -41q4 -13 -8.5 -16.5t-16.5 9.5q-5 16 -18 26q-25 20 -62 13q-2 0 -8.5 -2t-15 -12t-9.5 -24q-1 -18 19 -26q9 -3 26 -4q2 0 6.5 -0.5t6.5 -1.5q21 -1 23 -2q63 -9 65 -55q1 -34 -44 -57q-36 -17 -86.5 -19t-104.5 12q-38 10 -63.5 38.5t-23.5 69.5q2 34 22.5 58
t51.5 28q2 22 14 37q16 17 43 20q13 25 42 40.5t68 13.5q64 -3 96 -48q12 -17 17 -37q24 -6 43 -19q52 -36 47 -102q-1 -25 -13.5 -47t-35.5 -39.5t-38 -26.5t-40 -22q-14 -7 -19 -10l-1 -1l-2 -1q-62 -34 -56 -76q1 -6 -2.5 -10t-8.5 -5h-2zM943 59l-110 113q75 109 75 242
q0 116 -57 214.5t-155 155.5t-213 57t-213 -57t-154.5 -155.5t-56.5 -214.5t56.5 -214.5t154.5 -156t213 -57.5q132 0 242 76l110 -113q22 -22 53.5 -22t54 22.5t22.5 54.5t-22 55zM483 104q-127 0 -217 91t-90 219t90 218.5t217 90.5t217 -90.5t90 -218.5t-90 -219
t-217 -91z" />
    </font>
</defs>
</svg>
